<svg width="68" height="68" viewBox="0 0 68 68" fill="none" xmlns="http://www.w3.org/2000/svg">
<circle cx="34" cy="34" r="34" fill="white"/>
<path d="M33.3991 9.03496C33.3056 9.03933 32.953 9.06993 32.6132 9.09615C28.3653 9.41955 24.058 11.0365 20.528 13.6325C19.3598 14.489 18.438 15.2932 17.41 16.3508C11.5012 22.4341 9.0672 31.1397 10.915 39.5961C11.6712 43.0661 13.2853 46.5579 15.4263 49.3636C18.7864 53.7732 23.3911 56.8804 28.5565 58.2265C30.6592 58.7771 32.4051 59 34.6097 59C36.7846 59 38.3861 58.799 40.459 58.2789C43.4368 57.5272 46.0535 56.2904 48.6702 54.4069C51.1764 52.5976 53.5085 50.0628 55.1822 47.3314C57.3401 43.8003 58.5677 39.902 58.8693 35.6235C58.9331 34.7233 58.8948 32.4944 58.8014 31.5767C58.6145 29.7543 58.1387 27.3507 57.8626 26.8481C57.7522 26.6514 57.4421 26.398 57.2127 26.3149C57.132 26.2887 56.9536 26.2668 56.8091 26.2668C56.1719 26.2668 55.6367 26.8131 55.6367 27.4556C55.6367 27.6085 55.7047 27.9756 55.8024 28.3733C56.6435 31.7384 56.7114 35.4356 55.9935 38.8095C55.076 43.1316 53.0285 46.9425 49.9403 50.0672C48.5003 51.5225 47.1112 52.5976 45.3144 53.6552C41.1217 56.1244 35.9096 57.0596 31.0202 56.2205C27.3076 55.5868 24.0835 54.1184 21.0207 51.6667C19.5807 50.513 17.8263 48.6119 16.7389 47.0212C14.8613 44.2766 13.6804 41.3835 13.0687 38.0228C12.7586 36.3097 12.6524 34.0371 12.7968 32.1885C13.0177 29.3828 13.7016 26.7782 14.8613 24.309C15.3965 23.1596 15.7279 22.5609 16.3693 21.5688C17.6777 19.5323 19.4108 17.6269 21.3266 16.1148C23.5737 14.3361 26.2414 12.9857 28.9388 12.2602C30.3958 11.8669 31.5597 11.6702 33.038 11.561C38.3861 11.1676 43.5855 12.7497 47.8206 16.0667C48.135 16.3114 48.4663 16.578 48.5555 16.661L48.7169 16.8053L48.6532 16.9888C48.3261 17.9328 48.5682 19.1084 49.2564 19.93C49.609 20.3495 50.2462 20.7429 50.7856 20.874C51.1552 20.9657 51.7966 20.9657 52.1704 20.874C53.1177 20.6423 54.0013 19.8076 54.2816 18.8811C54.596 17.8454 54.4133 16.8227 53.7676 15.9924C53.054 15.0746 51.8264 14.6638 50.6922 14.9698L50.4458 15.0353L50.0975 14.7381C48.6829 13.5188 46.971 12.3913 45.1699 11.4954C42.2474 10.0401 39.3121 9.25785 35.969 9.04807C35.3276 9.00874 33.8111 9 33.3991 9.03496Z" fill="black"/>
<path d="M30.8842 23.4131C30.4339 24.6106 29.4569 27.2327 28.7051 29.2386C27.9532 31.2446 26.4112 35.3657 25.277 38.3943C24.1471 41.4229 23.2083 43.9139 23.1998 43.9314C23.1871 43.9533 24.3807 43.9664 25.8462 43.9664H28.5182L28.6753 43.5162C28.7645 43.2715 29.0789 42.4062 29.372 41.5933L29.9072 40.1206H33.9172C37.1116 40.1206 37.9272 40.1074 37.9145 40.0637C37.872 39.9458 37.2178 38.0228 36.8695 36.9958L36.4957 35.9033L33.8407 35.8814L31.1901 35.8596L32.9147 30.9693C33.9512 28.0325 34.6521 26.1095 34.6648 26.1532C34.6818 26.1926 35.37 28.2073 36.1983 30.6284C37.0267 33.0495 38.3945 37.0352 39.2356 39.4869L40.7605 43.9445L43.4197 43.9576C44.881 43.962 46.0789 43.9576 46.0789 43.9489C46.0789 43.9402 45.7348 43.0093 45.31 41.8861C44.8852 40.7586 43.9762 38.3331 43.288 36.4933C42.5999 34.6534 41.8268 32.5906 41.5676 31.9045C41.3128 31.2184 40.8667 30.0297 40.5779 29.2605C40.289 28.4913 39.5372 26.4766 38.9 24.781C38.2628 23.0853 37.7063 21.5951 37.6596 21.4683L37.5789 21.2411H31.6956L30.8842 23.4131Z" fill="black"/>
</svg>
