<svg height="548.1051587301587" version="1.1" width="1000" xmlns="http://www.w3.org/2000/svg" style="overflow: hidden; position: relative; left: -0.5px;" viewBox="0.9821428571428572 0.9821428571428004 1000 548.1051587301587" preserveAspectRatio="xMinYMin"><rect x="-2015.01" y="-1103.99" width="5040" height="2762.45" r="0" rx="0" ry="0" fill="#ffffff" stroke="none" transform="matrix(0.9921,0,0,0.9921,0,0)" stroke-width="1.008" style="-webkit-tap-highlight-color: rgba(0, 0, 0, 0); fill-opacity: 0;" fill-opacity="0"/><path fill="#2157f2" stroke="#ffffff" d="M317.7,14.8L333.5,29.5L336.2,32.6L336.7,33.4L338.09999999999997,36.6L339.9,39.7L340.79999999999995,40.6L342.29999999999995,41.800000000000004L348.4,45.00000000000001L349.29999999999995,45.800000000000004L351.29999999999995,48.400000000000006L358.79999999999995,53.2L353.49999999999994,68.60000000000001L351.8999999999999,77.2L348.2999999999999,81.3L332.8999999999999,87.5L332.8999999999999,96.1L333.2999999999999,100.8L333.0999999999999,102.39999999999999L332.2999999999999,104.39999999999999L324.2999999999999,115.49999999999999L322.8999999999999,116.89999999999999L321.0999999999999,118.1L318.9999999999999,118.8L317.6999999999999,119L313.39999999999986,119.3L311.1999999999999,119.8L310.1999999999999,120.2L308.59999999999985,121.5L303.79999999999984,130.3L302.79999999999984,131.70000000000002L301.99999999999983,132.50000000000003L299.99999999999983,133.40000000000003L292.29999999999984,132.90000000000003L284.39999999999986,160.20000000000005L285.59999999999985,169.30000000000004L290.1999999999999,173.60000000000005L296.39999999999986,174.70000000000005L302.4999999999999,174.70000000000005L307.39999999999986,173.40000000000003L302.89999999999986,196.90000000000003L302.1999999999999,203.10000000000002L302.2999999999999,204.40000000000003L301.6999999999999,212.60000000000002L301.1999999999999,213.90000000000003L300.2999999999999,215.00000000000003L298.1999999999999,216.00000000000003L294.1999999999999,216.20000000000002L293.2999999999999,216.60000000000002L289.9999999999999,221.90000000000003L288.5999999999999,222.80000000000004L287.4999999999999,223.00000000000003L285.39999999999986,222.60000000000002L284.39999999999986,222.8L283.4999999999999,223.4L282.7999999999999,224.20000000000002L282.2999999999999,226.60000000000002L281.7999999999999,238.00000000000003L282.0999999999999,245.60000000000002L281.3999999999999,254.70000000000002L274.0999999999999,274.5L272.19999999999993,286.3L252.59999999999994,282.6L247.29999999999993,280.8L246.09999999999994,279.1L243.59999999999994,272.8L238.19999999999993,267.7L229.39999999999992,261.2L225.49999999999991,258.8L222.6999999999999,257.6L221.49999999999991,257.8L219.99999999999991,259.2L218.89999999999992,261L217.5999999999999,264L217.0999999999999,266.4L217.0999999999999,270.2L216.7999999999999,271.2L215.8999999999999,272.2L214.3999999999999,272.9L211.3999999999999,273.59999999999997L209.4999999999999,273.2L208.19999999999987,272.7L206.59999999999988,271.2L205.59999999999988,268.9L204.59999999999988,267.5L202.69999999999987,265.5L200.09999999999988,265.1L198.79999999999987,264.20000000000005L198.29999999999987,263.30000000000007L198.39999999999986,262.20000000000005L199.59999999999985,260.50000000000006L201.19999999999985,259.20000000000005L202.39999999999984,257.50000000000006L202.79999999999984,255.10000000000005L202.39999999999984,252.90000000000006L200.49999999999983,249.90000000000006L197.99999999999983,247.60000000000005L195.79999999999984,244.90000000000006L194.49999999999983,241.90000000000006L193.29999999999984,240.20000000000007L186.59999999999985,233.60000000000008L184.19999999999985,231.9000000000001L182.29999999999984,230.9000000000001L179.69999999999985,231.10000000000008L177.49999999999986,231.70000000000007L173.79999999999987,231.80000000000007L164.19999999999987,229.40000000000006L172.39999999999986,201.00000000000006L173.59999999999985,193.30000000000007L172.29999999999984,190.60000000000008L170.79999999999984,189.00000000000009L169.19999999999985,187.70000000000007L167.69999999999985,186.30000000000007L166.69999999999985,184.30000000000007L165.79999999999984,180.90000000000006L164.59999999999985,179.10000000000005L163.09999999999985,177.80000000000004L155.59999999999985,173.00000000000003L152.19999999999985,171.60000000000002L149.49999999999986,165.40000000000003L149.09999999999985,162.10000000000002L150.29999999999984,158.70000000000002L167.89999999999984,127.40000000000002L176.09999999999982,118.30000000000003L186.49999999999983,110.30000000000003L197.39999999999984,105.30000000000003L241.59999999999985,94.70000000000003L244.29999999999984,92.00000000000003L244.19999999999985,85.40000000000003L242.89999999999984,83.60000000000004L237.69999999999985,81.00000000000004L235.89999999999984,79.20000000000005L235.09999999999982,76.40000000000005L234.2999999999998,69.90000000000005L233.7999999999998,67.90000000000005L231.3999999999998,63.40000000000005L230.19999999999982,61.80000000000005L227.7999999999998,59.50000000000005L224.9999999999998,58.20000000000005L216.3999999999998,57.10000000000005L213.7999999999998,51.00000000000005L216.2999999999998,47.50000000000005L220.3999999999998,44.50000000000005L222.9999999999998,40.30000000000005L221.7999999999998,35.40000000000005L218.7999999999998,31.100000000000048L216.9999999999998,26.300000000000047L219.6999999999998,19.600000000000048L225.5999999999998,15.200000000000047L231.5999999999998,15.700000000000047L236.0999999999998,20.300000000000047L237.29999999999978,28.200000000000045L242.89999999999978,24.200000000000045L253.09999999999977,11.800000000000045L260.39999999999975,8.700000000000045L266.9999999999998,9.500000000000046L271.5999999999998,12.000000000000046L276.2999999999998,13.700000000000045L282.7999999999998,12.400000000000045L292.0999999999998,2.600000000000044L296.2999999999998,1.000000000000044L296.8999999999998,9.200000000000044L298.99999999999983,6.0000000000000435L299.3999999999998,5.0000000000000435L311.3999999999998,13.700000000000042L317.6999999999998,14.800000000000042Z" class="sm_state sm_state_SLV1358" opacity="1" stroke-opacity="1" stroke-width="1.89" stroke-linejoin="round" transform="matrix(0.9921,0,0,0.9921,0,0)" style="-webkit-tap-highlight-color: rgba(0, 0, 0, 0); opacity: 1; cursor: pointer; stroke-opacity: 1; stroke-linejoin: round; fill-opacity: 1;" fill-opacity="1"/><path fill="#2157f2" stroke="#ffffff" d="M587.9,185.7L568.9,188.6L560.3,192.7L557.1999999999999,196.89999999999998L554.4,199.09999999999997L549.5,201.29999999999995L524.2,209.69999999999996L518,212.09999999999997L512.3,213.49999999999997L501.49999999999994,212.49999999999997L489.3999999999999,212.79999999999998L482.5999999999999,212.1L476.19999999999993,209.6L468.79999999999995,210.2L459.9,206L458.4,205L456.5,203.3L454.3,200.10000000000002L453.2,197.70000000000002L452.5,195.8L452.1,193.60000000000002L452.1,192.50000000000003L452.40000000000003,190.70000000000002L452.3,189.9L451.5,188.70000000000002L442.5,177.9L440.6,174.6L440,173.79999999999998L433,168.79999999999998L430,166.1L427.9,165L417.29999999999995,161.2L412.19999999999993,158.5L409.49999999999994,158.4L402.19999999999993,162.20000000000002L390.79999999999995,167.4L386.09999999999997,166.3L380.29999999999995,161.60000000000002L377.69999999999993,166.90000000000003L371.99999999999994,166.90000000000003L363.3999999999999,163.10000000000002L360.2999999999999,164.20000000000002L354.8999999999999,168.10000000000002L353.19999999999993,168.90000000000003L350.29999999999995,168.50000000000003L346.29999999999995,166.70000000000002L344.99999999999994,166.3L338.29999999999995,165.3L330.79999999999995,161.10000000000002L326.59999999999997,160.20000000000002L322.49999999999994,163.3L318.79999999999995,165.3L313.9,166.3L310.5,167.60000000000002L309.2,170.50000000000003L307.4,173.40000000000003L302.5,174.70000000000005L296.4,174.70000000000005L290.2,173.60000000000005L285.59999999999997,169.30000000000004L284.4,160.20000000000005L292.29999999999995,132.90000000000003L299.99999999999994,133.40000000000003L301.99999999999994,132.50000000000003L302.79999999999995,131.70000000000002L303.79999999999995,130.3L308.59999999999997,121.50000000000001L310.2,120.20000000000002L311.2,119.80000000000001L313.4,119.30000000000001L317.7,119.00000000000001L319,118.80000000000001L321.1,118.10000000000001L322.90000000000003,116.9L324.3,115.5L332.3,104.4L333.1,102.4L333.3,100.80000000000001L332.90000000000003,96.10000000000001L332.90000000000003,87.50000000000001L348.3,81.30000000000001L351.90000000000003,77.20000000000002L353.50000000000006,68.60000000000002L358.80000000000007,53.200000000000024L351.30000000000007,48.40000000000003L349.30000000000007,45.800000000000026L348.4000000000001,45.00000000000003L342.30000000000007,41.800000000000026L340.80000000000007,40.60000000000002L339.9000000000001,39.700000000000024L338.1000000000001,36.60000000000002L336.7000000000001,33.40000000000002L336.2000000000001,32.60000000000002L333.5000000000001,29.50000000000002L317.7000000000001,14.800000000000022L333.7000000000001,17.300000000000022L346.5000000000001,23.40000000000002L367.5000000000001,28.00000000000002L377.9000000000001,35.40000000000002L397.0000000000001,41.10000000000002L400.9000000000001,37.50000000000002L406.80000000000007,26.00000000000002L410.1000000000001,22.600000000000023L413.7000000000001,21.600000000000023L416.1000000000001,22.100000000000023L418.2000000000001,24.00000000000002L420.5000000000001,27.20000000000002L422.60000000000014,31.10000000000002L423.5000000000001,35.30000000000002L423.10000000000014,39.600000000000016L421.5000000000001,43.80000000000002L426.2000000000001,47.90000000000002L440.2000000000001,49.60000000000002L446.8000000000001,52.90000000000002L449.5000000000001,58.10000000000002L451.10000000000014,71.20000000000002L453.0000000000001,75.00000000000001L463.4000000000001,83.00000000000001L467.2000000000001,87.60000000000001L470.9000000000001,93.9L472.5000000000001,99.2L473.10000000000014,104.7L474.40000000000015,109.2L478.10000000000014,111.9L482.10000000000014,111L487.0000000000001,108.1L492.7000000000001,105.6L499.2000000000001,105.69999999999999L509.4000000000001,112.29999999999998L518.0000000000001,123.19999999999999L524.2000000000002,135.89999999999998L526.9000000000002,147.89999999999998L534.1000000000003,146.89999999999998L552.2000000000003,148.2L557.1000000000003,146.29999999999998L561.4000000000002,143.7L565.0000000000002,143.29999999999998L567.9000000000002,148.1L567.6000000000003,155.29999999999998L565.1000000000003,162.39999999999998L564.8000000000003,168.29999999999998L571.3000000000003,172.6L580.1000000000003,173.79999999999998L582.1000000000003,174.49999999999997L585.0000000000002,177.09999999999997L587.1000000000003,179.89999999999998L588.0000000000002,183.49999999999997L587.9000000000002,185.69999999999996Z" class="sm_state sm_state_SLV1357" opacity="1" stroke-opacity="1" stroke-width="1.89" stroke-linejoin="round" transform="matrix(0.9921,0,0,0.9921,0,0)" style="-webkit-tap-highlight-color: rgba(0, 0, 0, 0); opacity: 1; cursor: pointer; stroke-opacity: 1; stroke-linejoin: round; fill-opacity: 1;" fill-opacity="1"/><path fill="#2157f2" stroke="#ffffff" d="M152.2,171.6L155.6,173L163.1,177.8L164.6,179.10000000000002L165.79999999999998,180.90000000000003L166.7,184.30000000000004L167.7,186.30000000000004L169.2,187.70000000000005L170.79999999999998,189.00000000000006L172.29999999999998,190.60000000000005L173.6,193.30000000000004L172.4,201.00000000000003L164.20000000000002,229.40000000000003L156.9,232.50000000000003L147.8,235.00000000000003L142.8,235.80000000000004L141.70000000000002,236.50000000000003L140.8,237.80000000000004L140.4,240.50000000000003L140.3,242.30000000000004L141.20000000000002,250.20000000000005L141.9,252.70000000000005L142.70000000000002,254.60000000000005L144.00000000000003,257.6L143.80000000000004,259.1L135.40000000000003,271.90000000000003L134.60000000000002,274.20000000000005L134.40000000000003,275.90000000000003L137.90000000000003,286.90000000000003L138.30000000000004,289.3L137.70000000000005,291L136.50000000000006,293L133.40000000000006,296.7L132.20000000000007,299L131.50000000000009,300.8L131.3000000000001,304.8L131.00000000000009,305.8L125.70000000000009,315.40000000000003L124.90000000000009,317.40000000000003L122.6000000000001,326.90000000000003L120.5000000000001,327.70000000000005L117.1000000000001,328.1L104.70000000000009,327.40000000000003L102.1000000000001,326.90000000000003L101.3000000000001,326.3L98.3000000000001,323.40000000000003L92.90000000000009,317.20000000000005L90.40000000000009,315.30000000000007L88.3000000000001,314.50000000000006L85.2000000000001,314.30000000000007L82.8000000000001,314.70000000000005L80.2000000000001,315.80000000000007L78.0000000000001,317.4000000000001L75.0000000000001,321.1000000000001L68.4000000000001,331.50000000000006L67.5000000000001,333.1000000000001L39.6000000000001,320.30000000000007L10.0000000000001,305.9000000000001L1.2000000000000988,277.30000000000007L1.0000000000000988,270.6000000000001L2.0000000000000986,263.7000000000001L4.200000000000099,257.0000000000001L7.500000000000099,250.90000000000012L12.400000000000098,245.80000000000013L23.7000000000001,239.70000000000013L28.800000000000097,235.60000000000014L32.600000000000094,229.60000000000014L35.3000000000001,223.50000000000014L38.8000000000001,217.50000000000014L44.9000000000001,212.10000000000014L84.5000000000001,184.20000000000013L93.3000000000001,175.40000000000012L97.7000000000001,172.5000000000001L116.0000000000001,165.5000000000001L122.0000000000001,165.1000000000001L129.5000000000001,167.1000000000001L140.2000000000001,175.40000000000012L146.3000000000001,177.90000000000012L152.3000000000001,174.70000000000013L152.50000000000009,172.30000000000013L152.20000000000007,171.60000000000014Z" class="sm_state sm_state_SLV1343" opacity="1" stroke-opacity="1" stroke-width="1.89" stroke-linejoin="round" transform="matrix(0.9921,0,0,0.9921,0,0)" style="-webkit-tap-highlight-color: rgba(0, 0, 0, 0); opacity: 1; cursor: pointer; stroke-opacity: 1; stroke-linejoin: round; fill-opacity: 1;" fill-opacity="1"/><path fill="#2157f2" stroke="#ffffff" d="M489.4,212.8L483.29999999999995,222.5L481.59999999999997,225.3L480.2,226.8L478.7,228.10000000000002L473.2,231.3L472.3,231.9L471.1,233.6L470.3,235.7L470.1,237L471.1,239.7L473.1,243.39999999999998L481.1,254.79999999999998L483.70000000000005,257.5L487.00000000000006,259.8L489.00000000000006,262.1L490.50000000000006,265.40000000000003L490.80000000000007,267.3L491.30000000000007,269.1L493.4000000000001,272.70000000000005L493.9000000000001,274.40000000000003L494.5000000000001,277.1L495.4000000000001,279L497.1000000000001,281.3L501.1000000000001,285.5L503.80000000000007,289.6L504.20000000000005,290.70000000000005L507.90000000000003,292.80000000000007L522.1,296.70000000000005L514.6,316.90000000000003L513.2,322.8L512.2,324.8L511.30000000000007,326.2L503.30000000000007,334.09999999999997L500.4000000000001,335.79999999999995L498.1000000000001,336.59999999999997L493.00000000000006,337.29999999999995L490.90000000000003,338.09999999999997L490.3,338.9L489.40000000000003,340.9L488.70000000000005,341.7L487.00000000000006,342.4L483.80000000000007,342.7L476.00000000000006,340.2L468.90000000000003,336.4L450.70000000000005,329.7L450.40000000000003,316.9L449.50000000000006,314.79999999999995L448.70000000000005,312.49999999999994L446.70000000000005,309.99999999999994L439.6,296.29999999999995L438.90000000000003,294.29999999999995L439.6,285.09999999999997L439.3,283.29999999999995L438.5,282.09999999999997L437.5,281.7L435.9,280.59999999999997L434.2,278.9L429,271.2L428.2,270.59999999999997L425.9,269.9L423.29999999999995,269.79999999999995L420.4,267.4L416.59999999999997,263.09999999999997L405.7,245.79999999999995L404.5,242.49999999999994L405.3,241.79999999999995L408.2,240.49999999999994L409.3,239.69999999999993L410.1,238.89999999999992L410.8,237.29999999999993L410.5,236.29999999999993L407.9,233.09999999999994L399.4,218.99999999999994L395.4,210.89999999999995L394.59999999999997,207.69999999999996L394.09999999999997,203.99999999999997L394.4,203.39999999999998L396.59999999999997,201.49999999999997L397.59999999999997,199.79999999999998L398.29999999999995,197.6L398.59999999999997,195.1L399.2,192.7L399.5,189.79999999999998L399.2,185.7L397.9,178.7L397.7,176.79999999999998L398.2,175.39999999999998L400.09999999999997,171.39999999999998L401.99999999999994,166.29999999999998L402.19999999999993,162.2L409.49999999999994,158.39999999999998L412.19999999999993,158.49999999999997L417.29999999999995,161.19999999999996L427.9,164.99999999999997L430,166.09999999999997L433,168.79999999999995L440,173.79999999999995L440.6,174.59999999999997L442.5,177.89999999999998L451.5,188.7L452.3,189.89999999999998L452.40000000000003,190.7L452.1,192.5L452.1,193.6L452.5,195.79999999999998L453.2,197.7L454.3,200.1L456.5,203.29999999999998L458.4,204.99999999999997L459.9,205.99999999999997L468.79999999999995,210.19999999999996L476.19999999999993,209.59999999999997L482.5999999999999,212.09999999999997L489.3999999999999,212.79999999999995Z" class="sm_state sm_state_SLV1345" opacity="1" stroke-opacity="1" stroke-width="1.89" stroke-linejoin="round" transform="matrix(0.9921,0,0,0.9921,0,0)" style="-webkit-tap-highlight-color: rgba(0, 0, 0, 0); opacity: 1; cursor: pointer; stroke-opacity: 1; stroke-linejoin: round; fill-opacity: 1;" fill-opacity="1"/><path fill="#2157f2" stroke="#ffffff" d="M667.8,254L665.3,256.3L667.8,261.6L667.1999999999999,266.6L664.3,270.90000000000003L659.9,273.70000000000005L660.8,279.6L656.9,285.5L653.1,292.9L653.2,293L646.5,297.5L642.6,296.5L632.2,295.2L630.7,294.7L629.9000000000001,294L629.0000000000001,292L628.5000000000001,289.7L627.9000000000001,288.7L626.8000000000001,288.09999999999997L623.9000000000001,287.4L622.9000000000001,286.9L620.2,285.29999999999995L615.8000000000001,283.69999999999993L614.8000000000001,283.19999999999993L607.2,277.5999999999999L606.3000000000001,277.0999999999999L601.7,276.2999999999999L596.1,275.9999999999999L593.4,275.4999999999999L580.1999999999999,275.5999999999999L577.3,275.2999999999999L575.3,274.7999999999999L569.4,270.4999999999999L568,270.5999999999999L566.5,271.3999999999999L564.5,274.19999999999993L563.1,275.5999999999999L561.7,276.4999999999999L559.3000000000001,276.2999999999999L556.3000000000001,275.5999999999999L553.6,276.2999999999999L540.8000000000001,281.9999999999999L536.8000000000001,283.2999999999999L534.0000000000001,283.7999999999999L529.7000000000002,282.2999999999999L527.3000000000002,281.7999999999999L524.6000000000001,281.6999999999999L523.5000000000001,283.1999999999999L522.7000000000002,284.4999999999999L522.1000000000001,296.6999999999999L507.90000000000015,292.7999999999999L504.20000000000016,290.6999999999999L503.8000000000002,289.59999999999985L501.1000000000002,285.49999999999983L497.1000000000002,281.29999999999984L495.4000000000002,278.99999999999983L494.5000000000002,277.09999999999985L493.9000000000002,274.39999999999986L493.4000000000002,272.6999999999999L491.3000000000002,269.09999999999985L490.8000000000002,267.29999999999984L490.50000000000017,265.39999999999986L489.00000000000017,262.09999999999985L487.00000000000017,259.79999999999984L483.70000000000016,257.49999999999983L481.10000000000014,254.79999999999984L473.10000000000014,243.39999999999984L471.10000000000014,239.69999999999985L470.10000000000014,236.99999999999986L470.3000000000001,235.69999999999985L471.10000000000014,233.59999999999985L472.3000000000001,231.89999999999986L473.2000000000001,231.29999999999987L478.7000000000001,228.09999999999988L480.2000000000001,226.79999999999987L481.6000000000001,225.29999999999987L483.30000000000007,222.49999999999986L489.4000000000001,212.79999999999987L501.5000000000001,212.49999999999986L512.3000000000001,213.49999999999986L518.0000000000001,212.09999999999985L524.2000000000002,209.69999999999985L549.5000000000001,201.29999999999984L554.4000000000001,199.09999999999985L557.2,196.89999999999986L560.3000000000001,192.69999999999987L568.9000000000001,188.59999999999988L587.9000000000001,185.69999999999987L587.8000000000001,186.39999999999986L590.3000000000001,185.39999999999986L600.8000000000001,183.79999999999987L611.3000000000001,184.49999999999986L642.5000000000001,194.49999999999986L660.7000000000002,195.89999999999986L664.7000000000002,197.59999999999985L668.4000000000002,201.19999999999985L667.9000000000002,203.59999999999985L667.4000000000002,204.09999999999985L665.5000000000002,203.89999999999986L668.1000000000003,209.49999999999986L667.8000000000003,214.49999999999986L666.4000000000003,219.69999999999985L665.5000000000003,225.89999999999984L666.7000000000004,229.99999999999983L671.2000000000004,241.09999999999982L671.4000000000004,247.99999999999983L667.8000000000004,253.99999999999983Z" class="sm_state sm_state_SLV1344" opacity="1" stroke-opacity="1" stroke-width="1.89" stroke-linejoin="round" transform="matrix(0.9921,0,0,0.9921,0,0)" style="-webkit-tap-highlight-color: rgba(0, 0, 0, 0); opacity: 1; cursor: pointer; stroke-opacity: 1; stroke-linejoin: round; fill-opacity: 1;" fill-opacity="1"/><path fill="#2157f2" stroke="#ffffff" d="M503.3,334.1L506.40000000000003,342.5L506.50000000000006,349.5L506.00000000000006,356.6L506.50000000000006,359.5L507.30000000000007,361.2L508.50000000000006,361.4L511.1000000000001,361.2L521.0000000000001,358.09999999999997L522.7000000000002,357.99999999999994L524.6000000000001,358.29999999999995L527.8000000000002,359.49999999999994L528.9000000000002,360.8999999999999L539.1000000000003,382.69999999999993L539.5000000000002,385.19999999999993L539.5000000000002,387.8999999999999L538.9000000000002,390.2999999999999L535.8000000000002,398.9999999999999L535.2000000000002,400.9999999999999L533.2000000000002,412.39999999999986L533.1000000000001,414.39999999999986L533.7000000000002,421.79999999999984L534.3000000000002,424.1999999999998L534.9000000000002,425.8999999999998L537.6000000000003,428.8999999999998L540.1000000000003,430.8999999999998L543.7000000000003,433.0999999999998L546.5000000000002,435.7999999999998L549.2000000000003,439.2999999999998L550.2000000000003,441.4999999999998L550.6000000000003,443.2999999999998L550.4000000000002,444.5999999999998L549.9000000000002,446.9999999999998L549.0000000000002,448.9999999999998L546.5000000000002,450.89999999999975L545.3000000000002,452.59999999999974L544.9000000000002,453.69999999999976L544.7000000000002,456.2999999999998L546.6000000000001,473.5999999999998L546.4000000000001,475.9999999999998L545.9000000000001,476.9999999999998L544.4000000000001,478.5999999999998L543.6000000000001,479.1999999999998L539.8000000000002,481.0999999999998L536.7000000000002,482.2999999999998L534.9000000000002,483.2999999999998L533.3000000000002,484.5999999999998L532.1000000000001,486.2999999999998L531.2000000000002,488.3999999999998L530.9000000000002,489.5999999999998L529.8000000000002,502.3999999999998L433.70000000000016,457.49999999999983L404.50000000000017,439.49999999999983L405.8000000000002,435.49999999999983L406.9000000000002,432.99999999999983L410.1000000000002,427.29999999999984L411.3000000000002,425.59999999999985L413.3000000000002,423.09999999999985L414.3000000000002,421.29999999999984L414.00000000000017,420.09999999999985L412.70000000000016,418.6999999999999L408.60000000000014,416.9999999999999L406.3000000000001,416.4999999999999L403.60000000000014,416.39999999999986L402.40000000000015,414.59999999999985L400.90000000000015,407.6999999999999L401.8000000000001,404.1999999999999L403.0000000000001,403.39999999999986L406.0000000000001,400.09999999999985L408.10000000000014,395.49999999999983L411.60000000000014,384.99999999999983L412.5000000000001,380.3999999999998L412.8000000000001,377.49999999999983L412.0000000000001,375.3999999999998L408.8000000000001,369.7999999999998L407.60000000000014,366.3999999999998L406.8000000000001,362.6999999999998L407.0000000000001,360.6999999999998L407.60000000000014,359.3999999999998L408.5000000000001,358.8999999999998L409.60000000000014,358.5999999999998L412.20000000000016,358.7999999999998L418.8000000000002,360.9999999999998L421.3000000000002,361.2999999999998L423.4000000000002,359.5999999999998L435.8000000000002,343.7999999999998L450.70000000000016,329.69999999999976L468.90000000000015,336.39999999999975L476.00000000000017,340.19999999999976L483.8000000000002,342.69999999999976L487.00000000000017,342.39999999999975L488.70000000000016,341.69999999999976L489.40000000000015,340.89999999999975L490.3000000000001,338.89999999999975L490.90000000000015,338.09999999999974L493.00000000000017,337.2999999999997L498.1000000000002,336.59999999999974L500.4000000000002,335.7999999999997L503.3000000000002,334.09999999999974Z" class="sm_state sm_state_SLV1347" opacity="1" stroke-opacity="1" stroke-width="1.89" stroke-linejoin="round" transform="matrix(0.9921,0,0,0.9921,0,0)" style="-webkit-tap-highlight-color: rgba(0, 0, 0, 0); opacity: 1; cursor: pointer; stroke-opacity: 1; stroke-linejoin: round; fill-opacity: 1;" fill-opacity="1"/><path fill="#2157f2" stroke="#ffffff" d="M350.3,168.5L349.8,182.8L347.6,192L347.5,194.3L347.8,195.8L350.3,197.70000000000002L351.3,199.20000000000002L352.40000000000003,201.4L354.50000000000006,206.3L355.70000000000005,208.5L356.90000000000003,210.1L358.6,211.2L360.5,212.1L363.9,213.2L365.09999999999997,213.2L368.9,212.89999999999998L371.4,213.09999999999997L373.7,213.79999999999995L375.09999999999997,214.59999999999997L376.59999999999997,215.79999999999995L378.79999999999995,216.99999999999994L379.4,217.89999999999995L379.59999999999997,218.59999999999994L378.49999999999994,221.39999999999995L377.79999999999995,224.29999999999995L377.4,224.59999999999997L374.4,224.49999999999997L373.29999999999995,224.79999999999998L372.49999999999994,225.49999999999997L372.09999999999997,226.89999999999998L369.99999999999994,250.59999999999997L369.3999999999999,252.99999999999997L368.99999999999994,253.99999999999997L368.09999999999997,254.59999999999997L365.99999999999994,255.39999999999998L364.29999999999995,256.59999999999997L362.99999999999994,258.2L362.19999999999993,260.2L361.69999999999993,262.2L360.8999999999999,269.7L360.0999999999999,272.9L358.69999999999993,276.09999999999997L357.99999999999994,279.99999999999994L357.49999999999994,286.79999999999995L356.79999999999995,289.69999999999993L353.99999999999994,294.99999999999994L352.19999999999993,300.29999999999995L352.29999999999995,301.99999999999994L352.99999999999994,302.8999999999999L355.3999999999999,303.2999999999999L357.49999999999994,305.9999999999999L357.09999999999997,310.2999999999999L357.4,314.2999999999999L357.79999999999995,315.3999999999999L359.09999999999997,317.0999999999999L360.7,318.2999999999999L361.4,319.2999999999999L361.9,320.6999999999999L362.7,323.9999999999999L363.3,325.89999999999986L364.1,327.09999999999985L365,327.79999999999984L370.9,330.99999999999983L373.4,332.99999999999983L376.2,336.6999999999998L376.59999999999997,338.29999999999984L376.4,339.6999999999998L375.09999999999997,342.1999999999998L374.09999999999997,344.49999999999983L374.2,345.79999999999984L375.09999999999997,346.79999999999984L378.2,348.29999999999984L378.7,349.29999999999984L378.5,350.29999999999984L377,351.79999999999984L376.4,354.1999999999998L376.09999999999997,358.1999999999998L376.9,375.6999999999998L376.7,377.0999999999998L374.09999999999997,383.7999999999998L373.2,387.3999999999998L373,389.3999999999998L373.3,390.99999999999983L379.90000000000003,401.6999999999998L382.20000000000005,406.6999999999998L382.80000000000007,407.5999999999998L383.70000000000005,408.0999999999998L386.20000000000005,408.1999999999998L388.6,407.5999999999998L392.90000000000003,406.1999999999998L395.3,405.8999999999998L397.90000000000003,406.3999999999998L400.90000000000003,407.6999999999998L402.40000000000003,414.5999999999998L403.6,416.3999999999998L406.3,416.49999999999983L408.6,416.99999999999983L412.70000000000005,418.6999999999998L414.00000000000006,420.0999999999998L414.30000000000007,421.2999999999998L413.30000000000007,423.0999999999998L411.30000000000007,425.5999999999998L410.1000000000001,427.2999999999998L406.9000000000001,432.9999999999998L405.80000000000007,435.4999999999998L404.50000000000006,439.4999999999998L384.80000000000007,427.2999999999998L356.80000000000007,414.8999999999998L326.50000000000006,407.6999999999998L312.50000000000006,407.6999999999998L301.80000000000007,405.1999999999998L243.20000000000007,405.5999999999998L218.20000000000007,399.3999999999998L209.30000000000007,397.5999999999998L214.80000000000007,384.8999999999998L217.00000000000006,381.3999999999998L227.40000000000006,372.1999999999998L229.20000000000007,370.0999999999998L230.30000000000007,368.3999999999998L230.90000000000006,363.2999999999998L231.60000000000005,359.69999999999976L232.60000000000005,357.59999999999974L233.60000000000005,356.2999999999997L235.20000000000005,354.89999999999975L244.20000000000005,345.7999999999997L246.30000000000004,343.09999999999974L247.40000000000003,340.9999999999997L247.50000000000003,339.59999999999974L246.90000000000003,330.19999999999976L247.60000000000002,325.2999999999998L248.8,320.2999999999998L249.70000000000002,317.9999999999998L250.60000000000002,316.39999999999975L251.40000000000003,315.59999999999974L253.10000000000002,314.59999999999974L254.10000000000002,314.39999999999975L256.90000000000003,314.09999999999974L258.6,313.39999999999975L260.20000000000005,312.09999999999974L265.1,306.09999999999974L267.3,303.9999999999997L273.40000000000003,300.3999999999997L276.00000000000006,298.5999999999997L279.00000000000006,295.8999999999997L280.1000000000001,294.29999999999967L280.7000000000001,292.69999999999965L280.5000000000001,291.49999999999966L279.5000000000001,289.5999999999997L277.9000000000001,288.29999999999967L276.9000000000001,287.79999999999967L272.2000000000001,286.29999999999967L274.1000000000001,274.49999999999966L281.4000000000001,254.69999999999965L282.1000000000001,245.59999999999965L281.80000000000007,237.99999999999966L282.30000000000007,226.59999999999965L282.80000000000007,224.19999999999965L283.50000000000006,223.39999999999964L284.40000000000003,222.79999999999964L285.40000000000003,222.59999999999965L287.50000000000006,222.99999999999966L288.6000000000001,222.79999999999967L290.00000000000006,221.89999999999966L293.30000000000007,216.59999999999965L294.20000000000005,216.19999999999965L298.20000000000005,215.99999999999966L300.30000000000007,214.99999999999966L301.20000000000005,213.89999999999966L301.70000000000005,212.59999999999965L302.30000000000007,204.39999999999966L302.20000000000005,203.09999999999965L302.90000000000003,196.89999999999966L307.40000000000003,173.39999999999966L309.20000000000005,170.49999999999966L310.50000000000006,167.59999999999965L313.90000000000003,166.29999999999964L318.8,165.29999999999964L322.5,163.29999999999964L326.6,160.19999999999965L330.8,161.09999999999965L338.3,165.29999999999964L345,166.29999999999964L346.3,166.69999999999965L350.3,168.49999999999966Z" class="sm_state sm_state_SLV1346" opacity="1" stroke-opacity="1" stroke-width="1.89" stroke-linejoin="round" transform="matrix(0.9921,0,0,0.9921,0,0)" style="-webkit-tap-highlight-color: rgba(0, 0, 0, 0); opacity: 1; cursor: pointer; stroke-opacity: 1; stroke-linejoin: round; fill-opacity: 1;" fill-opacity="1"/><path fill="#b880ff" stroke="#ffffff" d="M402.2,162.2L402,166.29999999999998L400.1,171.39999999999998L398.20000000000005,175.39999999999998L397.70000000000005,176.79999999999998L397.90000000000003,178.7L399.20000000000005,185.7L399.50000000000006,189.79999999999998L399.20000000000005,192.7L398.6,195.1L398.3,197.6L397.6,199.79999999999998L396.6,201.49999999999997L394.40000000000003,203.39999999999998L394.1,203.99999999999997L394.6,207.69999999999996L395.40000000000003,210.89999999999995L399.40000000000003,218.99999999999994L407.90000000000003,233.09999999999994L410.50000000000006,236.29999999999993L410.80000000000007,237.29999999999993L410.1000000000001,238.89999999999992L409.30000000000007,239.69999999999993L408.20000000000005,240.49999999999994L405.30000000000007,241.79999999999995L404.50000000000006,242.49999999999994L405.70000000000005,245.79999999999995L416.6,263.09999999999997L420.40000000000003,267.4L423.3,269.79999999999995L425.90000000000003,269.9L428.20000000000005,270.59999999999997L429.00000000000006,271.2L434.20000000000005,278.9L435.90000000000003,280.59999999999997L437.50000000000006,281.7L438.50000000000006,282.09999999999997L439.30000000000007,283.29999999999995L439.6000000000001,285.09999999999997L438.9000000000001,294.29999999999995L439.6000000000001,296.29999999999995L446.7000000000001,309.99999999999994L448.7000000000001,312.49999999999994L449.5000000000001,314.79999999999995L450.4000000000001,316.9L450.7000000000001,329.7L435.8000000000001,343.8L423.40000000000015,359.6L421.3000000000001,361.3L418.8000000000001,361L412.2000000000001,358.8L409.6000000000001,358.6L408.50000000000006,358.90000000000003L407.6000000000001,359.40000000000003L407.00000000000006,360.70000000000005L406.80000000000007,362.70000000000005L407.6000000000001,366.40000000000003L408.80000000000007,369.8L412.00000000000006,375.40000000000003L412.80000000000007,377.50000000000006L412.50000000000006,380.40000000000003L411.6000000000001,385.00000000000006L408.1000000000001,395.50000000000006L406.00000000000006,400.1000000000001L403.00000000000006,403.4000000000001L401.80000000000007,404.2000000000001L400.9000000000001,407.7000000000001L397.9000000000001,406.4000000000001L395.30000000000007,405.9000000000001L392.9000000000001,406.2000000000001L388.6000000000001,407.6000000000001L386.2000000000001,408.2000000000001L383.7000000000001,408.1000000000001L382.8000000000001,407.6000000000001L382.2000000000001,406.7000000000001L379.9000000000001,401.7000000000001L373.30000000000007,391.0000000000001L373.00000000000006,389.4000000000001L373.20000000000005,387.4000000000001L374.1,383.80000000000007L376.70000000000005,377.1000000000001L376.90000000000003,375.7000000000001L376.1,358.2000000000001L376.40000000000003,354.2000000000001L377.00000000000006,351.8000000000001L378.50000000000006,350.3000000000001L378.70000000000005,349.3000000000001L378.20000000000005,348.3000000000001L375.1,346.8000000000001L374.20000000000005,345.8000000000001L374.1,344.5000000000001L375.1,342.2000000000001L376.40000000000003,339.7000000000001L376.6,338.3000000000001L376.20000000000005,336.7000000000001L373.40000000000003,333.0000000000001L370.90000000000003,331.0000000000001L365.00000000000006,327.8000000000001L364.1000000000001,327.10000000000014L363.30000000000007,325.90000000000015L362.70000000000005,324.00000000000017L361.90000000000003,320.70000000000016L361.40000000000003,319.3000000000002L360.70000000000005,318.3000000000002L359.1,317.1000000000002L357.8,315.4000000000002L357.40000000000003,314.3000000000002L357.1,310.3000000000002L357.5,306.00000000000017L355.4,303.3000000000002L353,302.9000000000002L352.3,302.0000000000002L352.2,300.30000000000024L354,295.0000000000002L356.8,289.7000000000002L357.5,286.80000000000024L358,280.0000000000002L358.7,276.10000000000025L360.09999999999997,272.90000000000026L360.9,269.7000000000003L361.7,262.2000000000003L362.2,260.2000000000003L363,258.2000000000003L364.3,256.60000000000025L366,255.40000000000026L368.1,254.60000000000025L369,254.00000000000026L369.4,253.00000000000026L370,250.60000000000025L372.1,226.90000000000026L372.5,225.50000000000026L373.3,224.80000000000027L374.40000000000003,224.50000000000026L377.40000000000003,224.60000000000025L377.8,224.30000000000024L378.5,221.40000000000023L379.6,218.60000000000022L379.40000000000003,217.90000000000023L378.8,217.00000000000023L376.6,215.80000000000024L375.1,214.60000000000025L373.70000000000005,213.80000000000024L371.40000000000003,213.10000000000025L368.90000000000003,212.90000000000026L365.1,213.20000000000027L363.90000000000003,213.20000000000027L360.50000000000006,212.10000000000028L358.6000000000001,211.20000000000027L356.9000000000001,210.10000000000028L355.7000000000001,208.50000000000028L354.5000000000001,206.3000000000003L352.4000000000001,201.4000000000003L351.30000000000007,199.2000000000003L350.30000000000007,197.7000000000003L347.80000000000007,195.8000000000003L347.50000000000006,194.3000000000003L347.6000000000001,192.00000000000028L349.80000000000007,182.8000000000003L350.30000000000007,168.50000000000028L353.20000000000005,168.9000000000003L354.90000000000003,168.10000000000028L360.3,164.20000000000027L363.40000000000003,163.10000000000028L372.00000000000006,166.9000000000003L377.70000000000005,166.9000000000003L380.30000000000007,161.60000000000028L386.1000000000001,166.30000000000027L390.80000000000007,167.40000000000026L402.20000000000005,162.20000000000027Z" class="sm_state sm_state_SLV1349" opacity="1" stroke-opacity="1" stroke-width="1.89" stroke-linejoin="round" transform="matrix(0.9921,0,0,0.9921,0,0)" style="-webkit-tap-highlight-color: rgba(0, 0, 0, 0); opacity: 1; cursor: pointer; stroke-opacity: 1; stroke-linejoin: round; fill-opacity: 1;" fill-opacity="1"/><path fill="#2157f2" stroke="#ffffff" d="M272.2,286.3L276.9,287.8L277.9,288.3L279.5,289.6L280.5,291.5L280.7,292.7L280.09999999999997,294.3L278.99999999999994,295.90000000000003L275.99999999999994,298.6L273.3999999999999,300.40000000000003L267.2999999999999,304.00000000000006L265.0999999999999,306.1000000000001L260.19999999999993,312.1000000000001L258.5999999999999,313.4000000000001L256.8999999999999,314.1000000000001L254.0999999999999,314.4000000000001L253.0999999999999,314.6000000000001L251.39999999999992,315.6000000000001L250.5999999999999,316.4000000000001L249.6999999999999,318.0000000000001L248.7999999999999,320.3000000000001L247.5999999999999,325.3000000000001L246.89999999999992,330.2000000000001L247.49999999999991,339.6000000000001L247.39999999999992,341.00000000000006L246.29999999999993,343.1000000000001L244.19999999999993,345.80000000000007L235.19999999999993,354.9000000000001L233.59999999999994,356.30000000000007L232.59999999999994,357.6000000000001L231.59999999999994,359.7000000000001L230.89999999999995,363.3000000000001L230.29999999999995,368.40000000000015L229.19999999999996,370.10000000000014L227.39999999999995,372.20000000000016L216.99999999999994,381.40000000000015L214.79999999999995,384.90000000000015L209.29999999999995,397.60000000000014L206.39999999999995,397.10000000000014L180.29999999999995,388.40000000000015L166.49999999999994,391.3000000000001L127.39999999999995,391.8000000000001L121.09999999999995,387.40000000000015L116.99999999999996,371.8000000000001L115.39999999999996,362.10000000000014L110.29999999999997,357.8000000000001L101.79999999999997,352.5000000000001L68.39999999999998,333.5000000000001L67.49999999999997,333.10000000000014L68.39999999999998,331.5000000000001L74.99999999999997,321.10000000000014L77.99999999999997,317.40000000000015L80.19999999999997,315.8000000000001L82.79999999999997,314.7000000000001L85.19999999999997,314.3000000000001L88.29999999999997,314.5000000000001L90.39999999999996,315.3000000000001L92.89999999999996,317.2000000000001L98.29999999999997,323.4000000000001L101.29999999999997,326.30000000000007L102.09999999999997,326.9000000000001L104.69999999999996,327.4000000000001L117.09999999999997,328.1000000000001L120.49999999999997,327.7000000000001L122.59999999999997,326.9000000000001L124.89999999999996,317.4000000000001L125.69999999999996,315.4000000000001L130.99999999999997,305.80000000000007L131.29999999999998,304.80000000000007L131.49999999999997,300.80000000000007L132.19999999999996,299.00000000000006L133.39999999999995,296.70000000000005L136.49999999999994,293.00000000000006L137.69999999999993,291.00000000000006L138.29999999999993,289.30000000000007L137.89999999999992,286.9000000000001L134.39999999999992,275.9000000000001L134.5999999999999,274.2000000000001L135.39999999999992,271.9000000000001L143.79999999999993,259.1000000000001L143.99999999999991,257.6000000000001L142.6999999999999,254.60000000000008L141.8999999999999,252.70000000000007L141.1999999999999,250.20000000000007L140.2999999999999,242.30000000000007L140.3999999999999,240.50000000000006L140.7999999999999,237.80000000000007L141.6999999999999,236.50000000000006L142.7999999999999,235.80000000000007L147.7999999999999,235.00000000000006L156.8999999999999,232.50000000000006L164.1999999999999,229.40000000000006L173.7999999999999,231.80000000000007L177.4999999999999,231.70000000000007L179.69999999999987,231.10000000000008L182.29999999999987,230.9000000000001L184.19999999999987,231.9000000000001L186.59999999999988,233.60000000000008L193.29999999999987,240.20000000000007L194.49999999999986,241.90000000000006L195.79999999999987,244.90000000000006L197.99999999999986,247.60000000000005L200.49999999999986,249.90000000000006L202.39999999999986,252.90000000000006L202.79999999999987,255.10000000000005L202.39999999999986,257.50000000000006L201.19999999999987,259.20000000000005L199.59999999999988,260.50000000000006L198.3999999999999,262.20000000000005L198.2999999999999,263.30000000000007L198.7999999999999,264.20000000000005L200.0999999999999,265.1L202.6999999999999,265.5L204.5999999999999,267.5L205.5999999999999,268.9L206.5999999999999,271.2L208.1999999999999,272.7L209.49999999999991,273.2L211.39999999999992,273.59999999999997L214.39999999999992,272.9L215.89999999999992,272.2L216.79999999999993,271.2L217.09999999999994,270.2L217.09999999999994,266.4L217.59999999999994,264L218.89999999999995,261L219.99999999999994,259.2L221.49999999999994,257.8L222.69999999999993,257.6L225.49999999999994,258.8L229.39999999999995,261.2L238.19999999999996,267.7L243.59999999999997,272.8L246.09999999999997,279.1L247.29999999999995,280.8L252.59999999999997,282.6L272.2,286.3Z" class="sm_state sm_state_SLV1348" opacity="1" stroke-opacity="1" stroke-width="1.89" stroke-linejoin="round" transform="matrix(0.9921,0,0,0.9921,0,0)" style="-webkit-tap-highlight-color: rgba(0, 0, 0, 0); opacity: 1; cursor: pointer; stroke-opacity: 1; stroke-linejoin: round; fill-opacity: 1;" fill-opacity="1"/><path fill="#2157f2" stroke="#ffffff" d="M826.2,542.7L822.3000000000001,544.2L786.7,547.2L748.6,541.4000000000001L738.6,544.6000000000001L733.4,542.8000000000002L727.4,541.5000000000002L727.4,538.8000000000002L736.6999999999999,538.2000000000002L737.3,531.7000000000002L732.4,523.6000000000001L724.8,518.3000000000002L726.5,521.6000000000001L731.4,528.5000000000001L733.3,532.8000000000001L718.4,532.3000000000001L711.1,533.0000000000001L704.9,535.7000000000002L708.9,537.4000000000002L712.1,536.9000000000002L716,535.8000000000002L721.8,535.7000000000002L721.8,538.8000000000002L712.1999999999999,542.8000000000002L701.5999999999999,542.5000000000002L693.3,537.4000000000002L690.8,527.0000000000002L694.9,528.8000000000002L696.4,529.9000000000002L702.1,524.1000000000003L702.1,521.5000000000002L695,518.3000000000002L687.3,507.3000000000002L682.0999999999999,504.1000000000002L683.4999999999999,510.2000000000002L685.7999999999998,515.2000000000003L686.9999999999999,519.7000000000003L685.1999999999999,524.1000000000003L679.1999999999999,520.7000000000003L661.8,516.3000000000003L654.1999999999999,512.2000000000003L647.4,500.0000000000003L644.1999999999999,498.0000000000003L639.4,497.6000000000003L625.8,494.9000000000003L619.8,494.9000000000003L603.0999999999999,498.00000000000034L579.8,498.70000000000033L574.6999999999999,500.9000000000003L577.4999999999999,503.20000000000033L580.4999999999999,504.80000000000035L583.4999999999999,505.30000000000035L586.1999999999999,504.10000000000036L597.8,506.80000000000035L630.9,503.20000000000033L634.6,503.80000000000035L639.9,506.70000000000033L642.8,509.4000000000003L647.9,515.7000000000003L651.4,518.3000000000003L651.4,521.5000000000003L643.6999999999999,520.2000000000004L638.0999999999999,519.1000000000004L625.8,515.4000000000003L625.8,518.3000000000003L659.5999999999999,525.3000000000003L677.1999999999999,531.0000000000003L685.1999999999999,538.8000000000003L682.3,543.9000000000003L674.9,542.7000000000003L666.6999999999999,538.3000000000003L661.3,534.2000000000003L655.1999999999999,531.1000000000003L548.8,511.30000000000024L535.8,505.2000000000002L535.8,504.30000000000024L537.4,498.30000000000024L540.5,494.10000000000025L545.4,492.2000000000003L553.5,491.0000000000003L557.4,487.90000000000026L559.9,483.2000000000003L563.6999999999999,477.5000000000003L570.9,470.5000000000003L572,467.6000000000003L572.5,454.4000000000003L573.5,449.00000000000034L575.2,444.50000000000034L594,408.60000000000036L597.5,396.10000000000036L598.5,383.2000000000004L600.8,379.8000000000004L607.5999999999999,378.7000000000004L608.0999999999999,376.0000000000004L619.9999999999999,361.3000000000004L629.0999999999999,363.40000000000043L637.3999999999999,358.1000000000004L643.4999999999999,349.6000000000004L645.7999999999998,342.20000000000044L671.6999999999998,323.20000000000044L688.4999999999998,321.30000000000047L693.4999999999998,321.6000000000005L695.9999999999998,324.80000000000047L699.3999999999997,330.20000000000044L702.2999999999997,332.90000000000043L705.7999999999997,335.50000000000045L708.9999999999998,336.6000000000005L719.0999999999998,337.80000000000047L721.5999999999998,338.6000000000005L722.9999999999998,339.7000000000005L722.9999999999998,340.9000000000005L720.9999999999998,346.4000000000005L720.7999999999997,348.9000000000005L721.5999999999997,352.5000000000005L722.6999999999997,355.5000000000005L723.2999999999997,357.2000000000005L723.4999999999998,358.8000000000005L723.2999999999997,359.90000000000055L722.8999999999997,361.00000000000057L721.6999999999997,362.6000000000006L720.6999999999997,363.1000000000006L718.4999999999997,363.8000000000006L717.4999999999997,364.3000000000006L716.8999999999996,365.1000000000006L716.0999999999997,367.1000000000006L715.8999999999996,368.4000000000006L715.9999999999997,370.9000000000006L716.3999999999996,373.3000000000006L721.3999999999996,383.9000000000006L721.9999999999997,385.4000000000006L721.9999999999997,386.5000000000006L721.0999999999997,389.80000000000064L721.0999999999997,391.5000000000006L721.3999999999996,393.7000000000006L723.0999999999997,399.30000000000064L723.2999999999997,400.90000000000066L723.0999999999997,401.90000000000066L722.5999999999997,403.10000000000065L720.3999999999996,405.10000000000065L719.1999999999996,406.90000000000066L718.6999999999996,409.30000000000064L718.6999999999996,411.90000000000066L718.5999999999996,414.5000000000007L718.1999999999996,415.6000000000007L717.5999999999996,416.3000000000007L716.7999999999996,416.20000000000067L715.0999999999996,414.60000000000065L713.7999999999996,414.60000000000065L713.0999999999996,415.40000000000066L712.7999999999996,416.5000000000007L712.6999999999996,419.0000000000007L713.3999999999996,424.70000000000067L713.4999999999997,427.40000000000066L714.7999999999996,435.30000000000064L715.2999999999996,436.60000000000065L715.8999999999996,437.10000000000065L716.5999999999997,437.10000000000065L718.4999999999997,436.40000000000066L720.1999999999997,437.0000000000007L720.7999999999997,438.1000000000007L721.0999999999997,439.4000000000007L720.9999999999997,442.1000000000007L721.1999999999997,444.6000000000007L721.7999999999997,447.9000000000007L723.9999999999998,455.50000000000074L726.2999999999997,460.00000000000074L730.3999999999997,466.7000000000007L733.2999999999997,470.4000000000007L734.8999999999997,471.6000000000007L737.9999999999998,473.0000000000007L740.1999999999998,473.5000000000007L748.2999999999998,474.5000000000007L750.1999999999998,475.5000000000007L752.2999999999998,477.3000000000007L755.8999999999999,481.6000000000007L757.5999999999999,483.3000000000007L758.8,484.1000000000007L761.0999999999999,484.1000000000007L762.0999999999999,484.5000000000007L765.3999999999999,487.0000000000007L767.5999999999999,487.6000000000007L769.9999999999999,487.2000000000007L771.9999999999999,486.30000000000075L775.8999999999999,484.30000000000075L777.1999999999998,484.10000000000076L778.9999999999998,484.30000000000075L780.2999999999997,485.80000000000075L780.9999999999998,487.10000000000076L781.3999999999997,488.4000000000008L781.4999999999998,489.60000000000076L781.5999999999998,495.9000000000008L782.5999999999998,497.4000000000008L784.1999999999998,498.7000000000008L786.8999999999999,500.2000000000008L787.7999999999998,501.5000000000008L788.0999999999998,502.7000000000008L784.9999999999998,508.3000000000008L784.2999999999997,511.1000000000008L784.3999999999997,513.2000000000008L785.1999999999997,514.0000000000008L786.1999999999997,514.2000000000008L797.3999999999997,512.5000000000008L799.7999999999997,512.8000000000008L800.8999999999997,513.2000000000007L826.1999999999997,542.7000000000007Z" class="sm_state sm_state_SLV1354" opacity="1" stroke-opacity="1" stroke-width="1.89" stroke-linejoin="round" transform="matrix(0.9921,0,0,0.9921,0,0)" style="-webkit-tap-highlight-color: rgba(0, 0, 0, 0); opacity: 1; cursor: pointer; stroke-opacity: 1; stroke-linejoin: round; fill-opacity: 1;" fill-opacity="1"/><path fill="#2157f2" stroke="#ffffff" d="M869,381.3L866.3,385L865.5,390.3L865.7,403.2L867.3000000000001,409.3L867.3000000000001,410.7L866.9000000000001,412.09999999999997L865.3000000000001,413.99999999999994L863.1,415.79999999999995L861.3000000000001,416.79999999999995L860.5000000000001,417.4L859.9000000000001,419.09999999999997L859.5000000000001,421.9L859.7000000000002,432.7L860.9000000000002,440.2L861.8000000000002,442.3L865.7000000000002,448.5L866.5000000000001,450.6L866.7000000000002,451.6L861.4000000000002,482.1L861.5000000000002,483.90000000000003L862.2000000000003,486.3L861.9000000000003,488.90000000000003L856.5000000000003,506.6L855.5000000000003,507.6L853.6000000000004,508.20000000000005L852.2000000000004,508.20000000000005L850.9000000000004,507.90000000000003L846.6000000000005,506.40000000000003L843.0000000000005,504.20000000000005L839.6000000000005,501.70000000000005L838.8000000000005,501.30000000000007L837.7000000000005,505.50000000000006L837.1000000000005,508.80000000000007L834.9000000000004,542.0000000000001L832.0000000000005,541.5000000000001L829.2000000000005,541.5000000000001L826.2000000000005,542.7000000000002L800.9000000000005,513.2000000000002L799.8000000000005,512.8000000000002L797.4000000000005,512.5000000000002L786.2000000000005,514.2000000000003L785.2000000000005,514.0000000000002L784.4000000000005,513.2000000000003L784.3000000000005,511.10000000000025L785.0000000000006,508.30000000000024L788.1000000000006,502.7000000000002L787.8000000000006,501.5000000000002L786.9000000000007,500.2000000000002L784.2000000000006,498.7000000000002L782.6000000000006,497.4000000000002L781.6000000000006,495.9000000000002L781.5000000000006,489.6000000000002L781.4000000000005,488.4000000000002L781.0000000000006,487.1000000000002L780.3000000000005,485.8000000000002L779.0000000000006,484.3000000000002L777.2000000000006,484.1000000000002L775.9000000000007,484.3000000000002L772.0000000000007,486.3000000000002L770.0000000000007,487.20000000000016L767.6000000000007,487.60000000000014L765.4000000000007,487.0000000000001L762.1000000000007,484.5000000000001L761.1000000000007,484.10000000000014L758.8000000000008,484.10000000000014L757.6000000000007,483.3000000000001L755.9000000000007,481.60000000000014L752.3000000000006,477.3000000000001L750.2000000000006,475.5000000000001L748.3000000000006,474.5000000000001L740.2000000000006,473.5000000000001L738.0000000000006,473.0000000000001L734.9000000000005,471.60000000000014L733.3000000000005,470.40000000000015L730.4000000000005,466.70000000000016L726.3000000000005,460.00000000000017L724.0000000000006,455.50000000000017L721.8000000000005,447.90000000000015L721.2000000000005,444.60000000000014L721.0000000000005,442.10000000000014L721.1000000000005,439.40000000000015L720.8000000000005,438.10000000000014L720.2000000000005,437.0000000000001L718.5000000000005,436.4000000000001L716.6000000000005,437.1000000000001L715.9000000000004,437.1000000000001L715.3000000000004,436.6000000000001L714.8000000000004,435.30000000000007L713.5000000000005,427.4000000000001L713.4000000000004,424.7000000000001L712.7000000000004,419.0000000000001L712.8000000000004,416.5000000000001L713.1000000000004,415.4000000000001L713.8000000000004,414.6000000000001L715.1000000000004,414.6000000000001L716.8000000000004,416.2000000000001L717.6000000000004,416.3000000000001L718.2000000000004,415.60000000000014L718.6000000000004,414.5000000000001L718.7000000000004,411.9000000000001L718.7000000000004,409.30000000000007L719.2000000000004,406.9000000000001L720.4000000000004,405.1000000000001L722.6000000000005,403.1000000000001L723.1000000000005,401.9000000000001L723.3000000000005,400.9000000000001L723.1000000000005,399.30000000000007L721.4000000000004,393.70000000000005L721.1000000000005,391.50000000000006L721.1000000000005,389.80000000000007L722.0000000000005,386.50000000000006L722.0000000000005,385.40000000000003L721.4000000000004,383.90000000000003L716.4000000000004,373.3L716.0000000000005,370.90000000000003L715.9000000000004,368.40000000000003L716.1000000000005,367.1L716.9000000000004,365.1L717.5000000000005,364.3L718.5000000000005,363.8L720.7000000000005,363.1L721.7000000000005,362.6L722.9000000000005,361L723.3000000000005,359.9L723.5000000000006,358.79999999999995L723.3000000000005,357.19999999999993L722.7000000000005,355.49999999999994L721.6000000000005,352.49999999999994L720.8000000000005,348.8999999999999L721.0000000000006,346.3999999999999L723.0000000000006,340.8999999999999L723.0000000000006,339.69999999999993L721.6000000000006,338.5999999999999L719.1000000000006,337.7999999999999L709.0000000000006,336.5999999999999L705.8000000000005,335.4999999999999L702.3000000000005,332.89999999999986L699.4000000000005,330.1999999999999L696.0000000000006,324.7999999999999L693.5000000000006,321.5999999999999L688.5000000000006,321.2999999999999L671.7000000000006,323.1999999999999L667.0000000000006,315.7999999999999L654.3000000000005,302.9999999999999L653.2000000000005,292.9999999999999L653.1000000000005,292.89999999999986L656.9000000000004,285.4999999999999L660.8000000000004,279.5999999999999L659.9000000000004,273.69999999999993L664.3000000000004,270.8999999999999L667.2000000000004,266.5999999999999L667.8000000000004,261.5999999999999L665.3000000000004,256.2999999999999L667.8000000000004,253.9999999999999L678.8000000000004,253.3999999999999L686.5000000000005,248.6999999999999L694.0000000000005,245.49999999999991L710.6000000000005,241.79999999999993L714.6000000000005,241.99999999999991L721.1000000000005,244.5999999999999L724.1000000000005,244.99999999999991L724.6000000000005,243.6999999999999L724.6000000000005,241.1999999999999L724.9000000000004,238.5999999999999L726.2000000000004,237.0999999999999L728.9000000000004,236.89999999999992L732.2000000000004,237.49999999999991L735.5000000000003,238.39999999999992L738.1000000000004,239.5999999999999L741.0000000000003,234.1999999999999L745.4000000000003,232.5999999999999L750.4000000000003,232.1999999999999L754.9000000000003,230.6999999999999L758.2000000000003,227.49999999999991L759.6000000000003,225.0999999999999L761.8000000000003,228.1999999999999L766.7000000000003,239.6999999999999L767.4000000000003,243.0999999999999L767.5000000000003,244.49999999999991L768.2000000000004,246.29999999999993L769.8000000000004,249.49999999999991L771.1000000000004,253.0999999999999L771.2000000000004,255.5999999999999L770.9000000000004,256.7999999999999L770.1000000000005,258.7999999999999L768.7000000000005,260.3999999999999L767.1000000000005,261.69999999999993L765.4000000000004,264.0999999999999L764.9000000000004,265.5999999999999L764.5000000000005,267.9999999999999L764.7000000000005,272.0999999999999L765.3000000000005,274.2999999999999L766.8000000000005,275.8999999999999L769.2000000000005,277.99999999999994L784.7000000000005,288.69999999999993L785.7000000000005,289.69999999999993L786.8000000000005,291.3999999999999L787.5000000000006,293.8999999999999L787.5000000000006,295.49999999999994L787.2000000000006,296.69999999999993L786.5000000000006,297.49999999999994L784.8000000000005,298.79999999999995L781.6000000000005,299.99999999999994L779.7000000000005,300.99999999999994L766.2000000000005,310.79999999999995L765.0000000000005,312.49999999999994L765.0000000000005,313.59999999999997L765.7000000000005,324.29999999999995L766.9000000000005,326.19999999999993L769.1000000000006,328.69999999999993L774.3000000000006,333.3999999999999L775.7000000000006,335.49999999999994L776.4000000000007,338.09999999999997L777.9000000000007,339.59999999999997L781.9000000000007,342.49999999999994L783.4000000000007,344.49999999999994L784.2000000000006,346.19999999999993L784.4000000000007,347.3999999999999L785.1000000000007,349.5999999999999L786.7000000000007,351.19999999999993L789.6000000000007,353.0999999999999L790.6000000000007,353.9999999999999L791.2000000000007,355.0999999999999L791.1000000000007,356.19999999999993L790.7000000000007,357.19999999999993L788.3000000000008,360.49999999999994L787.8000000000008,361.3999999999999L787.8000000000008,362.19999999999993L788.5000000000008,362.69999999999993L790.8000000000008,361.99999999999994L794.1000000000007,359.99999999999994L796.2000000000007,359.19999999999993L798.5000000000007,358.69999999999993L814.5000000000007,357.3999999999999L816.0000000000007,357.8999999999999L817.5000000000007,358.8999999999999L819.3000000000006,361.19999999999993L820.8000000000006,363.99999999999994L821.5000000000007,366.29999999999995L822.6000000000007,373.9L823.7000000000007,375.7L824.6000000000007,376.3L830.7000000000007,380L832.1000000000007,381.3L833.0000000000007,382.40000000000003L834.1000000000007,384.40000000000003L834.7000000000007,385.1L836.7000000000007,385.40000000000003L839.8000000000008,385.1L855.9000000000008,380.1L860.2000000000007,379.8L869.0000000000007,381.3Z" class="sm_state sm_state_SLV1352" opacity="1" stroke-opacity="1" stroke-width="1.89" stroke-linejoin="round" transform="matrix(0.9921,0,0,0.9921,0,0)" style="-webkit-tap-highlight-color: rgba(0, 0, 0, 0); opacity: 1; cursor: pointer; stroke-opacity: 1; stroke-linejoin: round; fill-opacity: 1;" fill-opacity="1"/><path fill="#2157f2" stroke="#ffffff" d="M653.2,293L654.3000000000001,303L667.0000000000001,315.8L671.7000000000002,323.2L645.8000000000002,342.2L643.5000000000002,349.59999999999997L637.4000000000002,358.09999999999997L629.1000000000003,363.4L620.0000000000002,361.29999999999995L608.1000000000003,375.99999999999994L607.6000000000003,378.69999999999993L600.8000000000003,379.79999999999995L598.5000000000003,383.19999999999993L597.5000000000003,396.0999999999999L594.0000000000003,408.5999999999999L575.2000000000004,444.4999999999999L573.5000000000003,448.9999999999999L572.5000000000003,454.39999999999986L572.0000000000003,467.59999999999985L570.9000000000003,470.49999999999983L563.7000000000003,477.49999999999983L559.9000000000003,483.1999999999998L557.4000000000003,487.8999999999998L553.5000000000003,490.99999999999983L545.4000000000003,492.1999999999998L540.5000000000003,494.0999999999998L537.4000000000003,498.2999999999998L535.8000000000003,504.2999999999998L535.8000000000003,505.19999999999976L529.8000000000003,502.39999999999975L530.9000000000003,489.59999999999974L531.2000000000003,488.39999999999975L532.1000000000003,486.2999999999997L533.3000000000003,484.59999999999974L534.9000000000003,483.2999999999997L536.7000000000003,482.2999999999997L539.8000000000003,481.09999999999974L543.6000000000003,479.19999999999976L544.4000000000002,478.59999999999974L545.9000000000002,476.9999999999997L546.4000000000002,475.9999999999997L546.6000000000003,473.59999999999974L544.7000000000003,456.2999999999997L544.9000000000003,453.6999999999997L545.3000000000003,452.5999999999997L546.5000000000003,450.8999999999997L549.0000000000003,448.9999999999997L549.9000000000003,446.9999999999997L550.4000000000003,444.59999999999974L550.6000000000004,443.2999999999997L550.2000000000004,441.4999999999997L549.2000000000004,439.2999999999997L546.5000000000003,435.7999999999997L543.7000000000004,433.09999999999974L540.1000000000004,430.89999999999975L537.6000000000004,428.89999999999975L534.9000000000003,425.89999999999975L534.3000000000003,424.19999999999976L533.7000000000003,421.7999999999998L533.1000000000003,414.3999999999998L533.2000000000003,412.3999999999998L535.2000000000003,400.99999999999983L535.8000000000003,398.99999999999983L538.9000000000003,390.29999999999984L539.5000000000003,387.89999999999986L539.5000000000003,385.1999999999999L539.1000000000004,382.6999999999999L528.9000000000003,360.89999999999986L527.8000000000003,359.4999999999999L524.6000000000003,358.2999999999999L522.7000000000003,357.9999999999999L521.0000000000002,358.0999999999999L511.10000000000025,361.19999999999993L508.5000000000002,361.3999999999999L507.30000000000024,361.19999999999993L506.5000000000002,359.49999999999994L506.0000000000002,356.59999999999997L506.5000000000002,349.49999999999994L506.4000000000002,342.49999999999994L503.3000000000002,334.09999999999997L511.3000000000002,326.2L512.2000000000002,324.8L513.2000000000002,322.8L514.6000000000001,316.90000000000003L522.1000000000001,296.70000000000005L522.7000000000002,284.50000000000006L523.5000000000001,283.20000000000005L524.6000000000001,281.70000000000005L527.3000000000002,281.80000000000007L529.7000000000002,282.30000000000007L534.0000000000001,283.80000000000007L536.8000000000001,283.30000000000007L540.8000000000001,282.00000000000006L553.6,276.30000000000007L556.3000000000001,275.6000000000001L559.3000000000001,276.30000000000007L561.7,276.50000000000006L563.1,275.6000000000001L564.5,274.2000000000001L566.5,271.4000000000001L568,270.6000000000001L569.4,270.50000000000006L575.3,274.80000000000007L577.3,275.30000000000007L580.1999999999999,275.6000000000001L593.4,275.50000000000006L596.1,276.00000000000006L601.7,276.30000000000007L606.3000000000001,277.1000000000001L607.2,277.6000000000001L614.8000000000001,283.2000000000001L615.8000000000001,283.7000000000001L620.2,285.3000000000001L622.9000000000001,286.90000000000015L623.9000000000001,287.40000000000015L626.8000000000001,288.10000000000014L627.9000000000001,288.70000000000016L628.5000000000001,289.70000000000016L629.0000000000001,292.00000000000017L629.9000000000001,294.00000000000017L630.7,294.70000000000016L632.2,295.20000000000016L642.6,296.50000000000017L646.5,297.50000000000017L653.2,293.00000000000017Z" class="sm_state sm_state_SLV1353" opacity="1" stroke-opacity="1" stroke-width="1.89" stroke-linejoin="round" transform="matrix(0.9921,0,0,0.9921,0,0)" style="-webkit-tap-highlight-color: rgba(0, 0, 0, 0); opacity: 1; cursor: pointer; stroke-opacity: 1; stroke-linejoin: round; fill-opacity: 1;" fill-opacity="1"/><path fill="#2157f2" stroke="#ffffff" d="M997.4,539.8L999,544.0999999999999L995.5,545.9999999999999L990.2,544.0999999999999L986.7,545.6999999999999L986.7,541.0999999999999L984.5,536.4999999999999L985.4,531.0999999999999L985,525.6999999999999L988,523.5999999999999L993.7,525.4999999999999L997.2,533.2999999999998L997.4000000000001,539.7999999999998ZM972.6,521.6999999999999L969.9,524.4L964.5,519.5L963.2,512.8L965.6,510.4L969.1,510.09999999999997L972.3000000000001,511.99999999999994L975.0000000000001,518.1999999999999L972.6000000000001,521.6999999999999ZM834.9000000000001,541.9999999999999L837.1000000000001,508.7999999999999L837.7000000000002,505.4999999999999L838.8000000000002,501.2999999999999L839.6000000000001,501.6999999999999L843.0000000000001,504.1999999999999L846.6000000000001,506.39999999999986L850.9000000000001,507.89999999999986L852.2,508.1999999999999L853.6,508.1999999999999L855.5,507.59999999999985L856.5,506.59999999999985L861.9,488.89999999999986L862.1999999999999,486.29999999999984L861.4999999999999,483.89999999999986L861.3999999999999,482.09999999999985L866.6999999999998,451.59999999999985L866.4999999999998,450.59999999999985L865.6999999999998,448.49999999999983L861.7999999999998,442.29999999999984L860.8999999999999,440.1999999999998L859.6999999999998,432.6999999999998L859.4999999999998,421.8999999999998L859.8999999999997,419.0999999999998L860.4999999999998,417.3999999999998L861.2999999999997,416.7999999999998L863.0999999999997,415.7999999999998L865.2999999999997,413.9999999999998L866.8999999999997,412.0999999999998L867.2999999999997,410.6999999999998L867.2999999999997,409.29999999999984L865.6999999999997,403.1999999999998L865.4999999999997,390.29999999999984L866.2999999999996,384.99999999999983L868.9999999999997,381.29999999999984L881.7999999999996,367.59999999999985L884.7999999999996,362.99999999999983L885.4999999999997,354.99999999999983L894.9999999999997,330.49999999999983L897.3999999999996,319.09999999999985L898.6999999999996,309.1999999999999L898.7999999999996,301.09999999999985L898.3999999999996,298.49999999999983L897.5999999999997,296.49999999999983L897.0999999999997,295.49999999999983L895.1999999999997,293.09999999999985L894.6999999999997,292.1999999999999L894.2999999999997,289.6999999999999L895.9999999999998,263.89999999999986L895.1999999999998,251.89999999999986L893.3999999999999,244.89999999999986L892.0999999999999,236.59999999999985L894.3999999999999,237.09999999999985L900.4999999999999,241.09999999999985L903.2999999999998,241.89999999999986L905.1999999999998,240.89999999999986L910.4999999999998,236.79999999999987L913.6999999999998,235.69999999999987L917.7999999999998,235.9999999999999L925.8999999999999,237.59999999999988L929.8999999999999,237.3999999999999L933.8999999999999,234.4999999999999L937.2999999999998,230.19999999999987L941.3999999999999,226.69999999999987L947.5999999999999,226.4999999999999L951.4999999999999,229.4999999999999L955.4999999999999,240.69999999999987L958.8999999999999,245.79999999999987L960.9999999999999,247.09999999999988L966.7999999999998,249.29999999999987L969.2999999999998,250.69999999999987L987.4999999999999,266.39999999999986L994.6999999999999,269.39999999999986L990.9999999999999,275.4999999999999L982.6999999999999,294.7999999999999L980.5999999999999,301.7999999999999L983.3,308.7999999999999L981.1999999999999,313.3999999999999L977.0999999999999,317.2999999999999L973.4999999999999,322.4999999999999L971.9999999999999,329.9999999999999L972.3999999999999,345.7999999999999L971.3999999999999,353.4999999999999L961.4999999999999,377.4999999999999L959.0999999999999,389.1999999999999L963.3999999999999,398.89999999999986L967.6999999999998,400.4999999999999L976.3999999999999,397.5999999999999L982.3999999999999,399.8999999999999L985.5999999999999,403.5999999999999L987.6999999999999,408.69999999999993L988.4,414.3999999999999L987.5,419.7999999999999L980.4,427.8999999999999L947.9,442.7999999999999L944.4,440.7999999999999L942.3,437.2999999999999L939.1999999999999,428.1999999999999L927.5999999999999,448.39999999999986L924.5999999999999,460.39999999999986L932.1999999999999,465.59999999999985L936.9999999999999,467.49999999999983L950.6999999999999,480.6999999999998L958.4999999999999,485.8999999999998L959.0999999999999,488.3999999999998L959.0999999999999,493.5999999999998L955.8,502.5999999999998L947.5999999999999,509.0999999999998L916.8999999999999,524.5999999999998L908.5999999999999,531.1999999999998L907.1999999999999,537.9999999999998L916.6999999999999,544.5999999999998L902.0999999999999,547.9999999999998L845.3,544.0999999999998L834.9,541.9999999999998Z" class="sm_state sm_state_SLV1350" opacity="1" stroke-opacity="1" stroke-width="1.89" stroke-linejoin="round" transform="matrix(0.9921,0,0,0.9921,0,0)" style="-webkit-tap-highlight-color: rgba(0, 0, 0, 0); opacity: 1; cursor: pointer; stroke-opacity: 1; stroke-linejoin: round; fill-opacity: 1;" fill-opacity="1"/><path fill="#2157f2" stroke="#ffffff" d="M892.1,236.6L893.4,244.9L895.1999999999999,251.9L895.9999999999999,263.9L894.2999999999998,289.7L894.6999999999998,292.2L895.1999999999998,293.09999999999997L897.0999999999998,295.49999999999994L897.5999999999998,296.49999999999994L898.3999999999997,298.49999999999994L898.7999999999997,301.09999999999997L898.6999999999997,309.2L897.3999999999997,319.09999999999997L894.9999999999998,330.49999999999994L885.4999999999998,354.99999999999994L884.7999999999997,362.99999999999994L881.7999999999997,367.59999999999997L868.9999999999998,381.29999999999995L860.1999999999998,379.79999999999995L855.8999999999999,380.09999999999997L839.7999999999998,385.09999999999997L836.6999999999998,385.4L834.6999999999998,385.09999999999997L834.0999999999998,384.4L832.9999999999998,382.4L832.0999999999998,381.29999999999995L830.6999999999998,379.99999999999994L824.5999999999998,376.29999999999995L823.6999999999998,375.69999999999993L822.5999999999998,373.8999999999999L821.4999999999998,366.2999999999999L820.7999999999997,363.9999999999999L819.2999999999997,361.1999999999999L817.4999999999998,358.89999999999986L815.9999999999998,357.89999999999986L814.4999999999998,357.39999999999986L798.4999999999998,358.6999999999999L796.1999999999998,359.1999999999999L794.0999999999998,359.9999999999999L790.7999999999998,361.9999999999999L788.4999999999999,362.6999999999999L787.7999999999998,362.1999999999999L787.7999999999998,361.39999999999986L788.2999999999998,360.4999999999999L790.6999999999998,357.1999999999999L791.0999999999998,356.1999999999999L791.1999999999998,355.09999999999985L790.5999999999998,353.99999999999983L789.5999999999998,353.09999999999985L786.6999999999998,351.1999999999999L785.0999999999998,349.59999999999985L784.3999999999997,347.39999999999986L784.1999999999997,346.1999999999999L783.3999999999997,344.4999999999999L781.8999999999997,342.4999999999999L777.8999999999997,339.5999999999999L776.3999999999997,338.0999999999999L775.6999999999997,335.4999999999999L774.2999999999997,333.39999999999986L769.0999999999997,328.6999999999999L766.8999999999996,326.1999999999999L765.6999999999996,324.2999999999999L764.9999999999995,313.5999999999999L764.9999999999995,312.4999999999999L766.1999999999996,310.7999999999999L779.6999999999996,300.9999999999999L781.5999999999996,299.9999999999999L784.7999999999996,298.7999999999999L786.4999999999997,297.4999999999999L787.1999999999997,296.6999999999999L787.4999999999997,295.4999999999999L787.4999999999997,293.89999999999986L786.7999999999996,291.39999999999986L785.6999999999996,289.6999999999999L784.6999999999996,288.6999999999999L769.1999999999996,277.9999999999999L766.7999999999996,275.89999999999986L765.2999999999996,274.29999999999984L764.6999999999996,272.09999999999985L764.4999999999995,267.99999999999983L764.8999999999995,265.59999999999985L765.3999999999995,264.09999999999985L767.0999999999996,261.6999999999999L768.6999999999996,260.39999999999986L770.0999999999996,258.79999999999984L770.8999999999995,256.79999999999984L771.1999999999995,255.59999999999985L771.0999999999995,253.09999999999985L769.7999999999995,249.49999999999986L768.1999999999995,246.29999999999987L767.4999999999994,244.49999999999986L767.3999999999994,243.09999999999985L766.6999999999994,239.69999999999985L761.7999999999994,228.19999999999985L759.5999999999993,225.09999999999985L761.1999999999994,222.09999999999985L763.8999999999994,219.09999999999985L768.8999999999994,216.99999999999986L772.4999999999994,217.59999999999985L775.0999999999995,216.99999999999986L777.0999999999995,211.19999999999985L776.3999999999994,209.99999999999986L772.6999999999994,206.59999999999985L771.7999999999994,205.09999999999985L771.3999999999994,196.69999999999985L771.5999999999995,195.19999999999985L775.6999999999995,193.69999999999985L781.8999999999995,194.39999999999984L792.7999999999995,196.79999999999984L799.3999999999995,196.99999999999983L820.8999999999995,194.39999999999984L831.6999999999995,194.99999999999983L836.4999999999994,198.99999999999983L842.4999999999994,214.69999999999982L848.4999999999994,221.8999999999998L856.0999999999995,228.8999999999998L862.7999999999995,236.9999999999998L866.1999999999995,247.4999999999998L884.9999999999994,238.0999999999998L891.1999999999995,236.3999999999998L892.0999999999995,236.5999999999998Z" class="sm_state sm_state_SLV1351" opacity="1" stroke-opacity="1" stroke-width="1.89" stroke-linejoin="round" transform="matrix(0.9921,0,0,0.9921,0,0)" style="-webkit-tap-highlight-color: rgba(0, 0, 0, 0); opacity: 1; cursor: pointer; stroke-opacity: 1; stroke-linejoin: round; fill-opacity: 1;" fill-opacity="1"/><desc style="-webkit-tap-highlight-color: rgba(0, 0, 0, 0);">Created with Raphal 2.1.0</desc><defs style="-webkit-tap-highlight-color: rgba(0, 0, 0, 0);"/><text x="396.82539682539687" y="272.8174603174603" text-anchor="middle" font="10px &quot;Arial&quot;" stroke="none" fill="#ffffff" style="-webkit-tap-highlight-color: rgba(0, 0, 0, 0); text-anchor: middle; font: bold 25px Arial; cursor: pointer; opacity: 1;" stroke-width="0" font-size="25px" font-weight="bold" font-family="Arial" opacity="1" transform="matrix(0.9921,0,0,0.9921,3.1494,2.1652)" class="sm_label sm_label_0"><tspan dy="8.999985952225927" style="-webkit-tap-highlight-color: rgba(0, 0, 0, 0);">San Salvador</tspan></text><rect x="374.91354559159436" y="293.88632085663346" width="25.2" height="25.2" r="0" rx="0" ry="0" fill="#ffffff" stroke="#ffffff" stroke-width="2.016" opacity="0.8" transform="matrix(0.9921,0,0,0.9921,3.0755,2.4324)" class="sm_location sm_location_0" style="-webkit-tap-highlight-color: rgba(0, 0, 0, 0); opacity: 0.8; cursor: pointer;"/></svg>