<svg width="68" height="68" viewBox="0 0 68 68" fill="none" xmlns="http://www.w3.org/2000/svg">
<circle cx="34" cy="34" r="34" fill="white"/>
<g clip-path="url(#clip0_879_1390)">
<path d="M32.3644 9.03908C32.257 9.04884 31.9152 9.08302 31.6077 9.10743C24.5136 9.74702 17.8688 13.5748 13.6602 19.458C11.3167 22.7291 9.81779 26.4397 9.25144 30.37C9.05127 31.7419 9.02686 32.1472 9.02686 34.0073C9.02686 35.8675 9.05127 36.2727 9.25144 37.6447C10.6087 47.0237 17.2829 54.9037 26.3347 57.8234C27.9557 58.3458 29.6645 58.7022 31.6077 58.917C32.3644 59 35.6356 59 36.3923 58.917C39.7465 58.546 42.588 57.716 45.3905 56.2854C45.8201 56.0657 45.9031 56.0071 45.8445 55.9583C45.8055 55.929 43.9746 53.4732 41.7776 50.5048L37.7838 45.1098L32.7794 37.7033C30.0258 33.6314 27.7604 30.3017 27.7408 30.3017C27.7213 30.2968 27.7018 33.5875 27.692 37.6056C27.6774 44.6411 27.6725 44.9242 27.5846 45.0902C27.4577 45.3295 27.36 45.4271 27.155 45.5345C26.9987 45.6127 26.862 45.6273 26.1248 45.6273H25.2802L25.0556 45.4857C24.9091 45.393 24.8017 45.2709 24.7284 45.1293L24.6259 44.9096L24.6357 35.1205L24.6503 25.3266L24.8017 25.1361C24.8798 25.0336 25.0458 24.9018 25.163 24.8383C25.3632 24.7407 25.4413 24.7309 26.2859 24.7309C27.2819 24.7309 27.4479 24.77 27.7067 25.0531C27.7799 25.1313 30.4896 29.2129 33.7315 34.1294C36.9733 39.0459 41.4065 45.7591 43.584 49.0547L47.5387 55.0453L47.7389 54.9135C49.5112 53.7613 51.386 52.1208 52.8702 50.412C56.0291 46.7844 58.065 42.361 58.7486 37.6447C58.9487 36.2727 58.9731 35.8675 58.9731 34.0073C58.9731 32.1472 58.9487 31.7419 58.7486 30.37C57.3913 20.991 50.7171 13.1109 41.6653 10.1913C40.0687 9.67378 38.3697 9.31737 36.4656 9.10255C35.9969 9.05372 32.7697 9.00002 32.3644 9.03908ZM42.588 24.145C42.8224 24.2622 43.0128 24.4868 43.0811 24.7211C43.1202 24.8481 43.13 27.5627 43.1202 33.6802L43.1056 42.4587L41.5579 40.0859L40.0053 37.713V31.3318C40.0053 27.2062 40.0248 24.8871 40.0541 24.7748C40.1322 24.5014 40.3031 24.2866 40.5375 24.1597C40.7376 24.0571 40.8109 24.0474 41.5774 24.0474C42.3 24.0474 42.4269 24.0571 42.588 24.145Z" fill="black"/>
<path d="M47.2944 55.1527C47.1235 55.2601 47.0698 55.3333 47.2212 55.2503C47.3286 55.1869 47.5043 55.0551 47.475 55.0502C47.4604 55.0502 47.3774 55.099 47.2944 55.1527ZM46.9575 55.3724C46.8696 55.4408 46.8696 55.4456 46.977 55.3919C47.0356 55.3626 47.0845 55.3285 47.0845 55.3187C47.0845 55.2796 47.06 55.2894 46.9575 55.3724ZM46.7134 55.5189C46.6255 55.5872 46.6255 55.5921 46.7329 55.5384C46.7915 55.5091 46.8403 55.4749 46.8403 55.4652C46.8403 55.4261 46.8159 55.4359 46.7134 55.5189ZM46.4693 55.6653C46.3814 55.7337 46.3814 55.7386 46.4888 55.6849C46.5474 55.6556 46.5962 55.6214 46.5962 55.6116C46.5962 55.5726 46.5718 55.5823 46.4693 55.6653ZM46.0982 55.8606C45.9127 55.9583 45.9225 55.9973 46.108 55.9046C46.191 55.8606 46.2545 55.8167 46.2545 55.8069C46.2545 55.7728 46.2496 55.7776 46.0982 55.8606Z" fill="black"/>
</g>
<defs>
<clipPath id="clip0_879_1390">
<rect width="50" height="50" fill="white" transform="translate(9 9)"/>
</clipPath>
</defs>
</svg>
