<svg width="68" height="68" viewBox="0 0 68 68" fill="none" xmlns="http://www.w3.org/2000/svg">
<circle cx="34" cy="34" r="34" fill="white"/>
<g clip-path="url(#clip0_879_1397)">
<path d="M41.33 40.4333C42.7323 40.281 43.7961 39.0127 43.7477 37.4907C43.6995 35.9688 42.4905 34.7512 41.0398 34.7512H40.9432C39.4439 34.8019 38.2835 36.1209 38.3318 37.6936C38.3802 38.4546 38.6703 39.1141 39.1055 39.5707C37.4614 42.9699 34.9469 45.4557 31.1751 47.5358C28.6122 48.9563 25.9526 49.4636 23.2931 49.1086C21.117 48.8041 19.4245 47.7896 18.3605 46.1152C16.8132 43.6294 16.6681 40.9405 17.9738 38.2517C18.8926 36.3238 20.3432 34.9033 21.262 34.193C21.0686 33.5335 20.7784 32.4175 20.6333 31.6058C13.6216 36.9327 14.347 44.1367 16.4747 47.5358C18.0704 50.0725 21.3104 51.6452 24.8888 51.6452C25.8558 51.6452 26.8229 51.5437 27.7901 51.2901C33.9798 50.0218 38.6704 46.166 41.33 40.4333ZM49.8408 34.1424C46.1656 29.6272 40.7497 27.1413 34.5601 27.1413H33.7864C33.3512 26.2282 32.4323 25.6193 31.4169 25.6193H31.3201C29.8212 25.67 28.6607 26.989 28.7089 28.5619C28.7573 30.0838 29.9662 31.3014 31.4169 31.3014H31.5135C32.5774 31.2506 33.4962 30.5403 33.883 29.5764H34.7535C38.4286 29.5764 41.9102 30.6925 45.0535 32.8741C47.4713 34.5483 49.2122 36.7298 50.1792 39.3678C51.0013 41.4986 50.9529 43.5786 50.0825 45.3544C48.7286 48.0431 46.4558 49.5144 43.4577 49.5144C41.5234 49.5144 39.6859 48.9055 38.7187 48.4489C38.1868 48.9563 37.2196 49.7679 36.5426 50.2754C38.622 51.29 40.7497 51.8481 42.7807 51.8481C47.4229 51.8481 50.8563 49.1592 52.1619 46.4704C53.5642 43.5279 53.4674 38.4546 49.8408 34.1424ZM25.2756 41.2955C25.324 42.8176 26.5328 44.0351 27.9835 44.0351H28.0803C29.5794 43.9844 30.7399 42.6653 30.6915 41.0926C30.6432 39.5706 29.4342 38.3531 27.9835 38.3531H27.8869C27.7901 38.3531 27.6449 38.3531 27.5485 38.4037C25.5658 34.9539 24.7437 31.1998 25.0339 27.1412C25.2272 24.0972 26.1944 21.4591 27.8869 19.2775C29.2892 17.4004 31.9971 16.4872 33.8348 16.4366C38.9605 16.3351 41.1364 23.0317 41.2816 25.7206C41.9102 25.8728 42.9741 26.228 43.6995 26.4817C43.1191 18.2631 38.2835 14.0015 33.6414 14.0015C29.2892 14.0015 25.2756 17.2992 23.6797 22.1695C21.4554 28.6632 22.9061 34.9033 25.614 39.8244C25.3724 40.1794 25.2272 40.7374 25.2756 41.2955Z" fill="#764ABC"/>
</g>
<defs>
<clipPath id="clip0_879_1397">
<rect width="38" height="38" fill="white" transform="translate(15 14)"/>
</clipPath>
</defs>
</svg>
