<svg width="68" height="68" viewBox="0 0 68 68" fill="none" xmlns="http://www.w3.org/2000/svg">
<circle cx="34" cy="34" r="34" fill="white"/>
<g clip-path="url(#clip0_715_1377)">
<path d="M27.9586 53.86C29.6763 53.86 31.3237 53.1777 32.5383 51.963C33.7529 50.7484 34.4353 49.1011 34.4353 47.3833V40.9067H27.9586C26.2409 40.9067 24.5935 41.589 23.3789 42.8036C22.1643 44.0183 21.4819 45.6656 21.4819 47.3833C21.4819 49.1011 22.1643 50.7484 23.3789 51.963C24.5935 53.1777 26.2409 53.86 27.9586 53.86Z" fill="#0ACF83"/>
<path d="M21.4819 34.43C21.4819 32.7123 22.1643 31.0649 23.3789 29.8503C24.5935 28.6357 26.2409 27.9533 27.9586 27.9533H34.4353V40.9067H27.9586C26.2409 40.9067 24.5935 40.2243 23.3789 39.0097C22.1643 37.7951 21.4819 36.1477 21.4819 34.43Z" fill="#A259FF"/>
<path d="M21.4819 21.4767C21.4819 19.7598 22.1636 18.1132 23.3771 16.8988C24.5906 15.6843 26.2367 15.0013 27.9535 15H34.4302V27.9533H27.9586C26.2409 27.9533 24.5935 27.271 23.3789 26.0564C22.1643 24.8418 21.4819 23.1944 21.4819 21.4767Z" fill="#F24E1E"/>
<path d="M34.4351 15H40.9117C42.6294 15 44.2768 15.6824 45.4914 16.897C46.706 18.1116 47.3884 19.7589 47.3884 21.4767C47.3884 23.1944 46.706 24.8418 45.4914 26.0564C44.2768 27.271 42.6294 27.9533 40.9117 27.9533H34.4351V15Z" fill="#FF7262"/>
<path d="M47.3884 34.43C47.3884 36.1477 46.706 37.7951 45.4914 39.0097C44.2768 40.2243 42.6294 40.9067 40.9117 40.9067C39.194 40.9067 37.5466 40.2243 36.332 39.0097C35.1174 37.7951 34.4351 36.1477 34.4351 34.43C34.4351 32.7123 35.1174 31.0649 36.332 29.8503C37.5466 28.6357 39.194 27.9533 40.9117 27.9533C42.6294 27.9533 44.2768 28.6357 45.4914 29.8503C46.706 31.0649 47.3884 32.7123 47.3884 34.43Z" fill="#B880FF"/>
</g>
<defs>
<clipPath id="clip0_715_1377">
<rect width="38.86" height="38.86" fill="white" transform="translate(15 15)"/>
</clipPath>
</defs>
</svg>
