<svg width="68" height="68" viewBox="0 0 68 68" fill="none" xmlns="http://www.w3.org/2000/svg">
<circle cx="34" cy="34" r="34" fill="white"/>
<g clip-path="url(#clip0_715_1384)">
<path d="M53.1265 32.6995L36.1605 15.7335C35.9282 15.5011 35.6524 15.3167 35.3488 15.1909C35.0452 15.0651 34.7198 15.0004 34.3912 15.0004C34.0625 15.0004 33.7371 15.0651 33.4335 15.1909C33.13 15.3167 32.8541 15.5011 32.6218 15.7335L29.1001 19.2552L33.569 23.7241C34.6085 23.3598 35.7986 23.6087 36.6268 24.4369C37.0211 24.8319 37.2963 25.3298 37.4211 25.8737C37.5458 26.4176 37.5151 26.9857 37.3324 27.5129L41.6398 31.8203C42.6817 31.4609 43.8839 31.6928 44.7158 32.5271C44.9923 32.8037 45.2116 33.1321 45.3613 33.4934C45.5109 33.8548 45.5879 34.2421 45.5878 34.6333C45.5878 35.0244 45.5107 35.4117 45.3609 35.773C45.2112 36.1343 44.9918 36.4626 44.7152 36.7392C44.4386 37.0157 44.1102 37.235 43.7488 37.3846C43.3874 37.5343 43.0001 37.6113 42.609 37.6112C42.2179 37.6111 41.8306 37.534 41.4693 37.3843C41.1079 37.2346 40.7796 37.0152 40.5031 36.7386C39.6288 35.8642 39.4126 34.577 39.8546 33.4998L35.8375 29.4827V40.0538C36.1291 40.1981 36.3956 40.3884 36.6268 40.6173C36.9034 40.8938 37.1227 41.2221 37.2724 41.5834C37.422 41.9447 37.499 42.3319 37.499 42.723C37.499 43.1141 37.422 43.5013 37.2724 43.8626C37.1227 44.2239 36.9034 44.5522 36.6268 44.8287C36.3503 45.1052 36.022 45.3246 35.6607 45.4743C35.2994 45.6239 34.9122 45.7009 34.5211 45.7009C34.13 45.7009 33.7428 45.6239 33.3815 45.4743C33.0202 45.3246 32.6919 45.1052 32.4154 44.8287C32.1385 44.5524 31.9189 44.2241 31.769 43.8628C31.6192 43.5015 31.542 43.1142 31.542 42.723C31.542 42.3318 31.6192 41.9445 31.769 41.5832C31.9189 41.2218 32.1385 40.8936 32.4154 40.6173C32.7032 40.3307 33.0226 40.1133 33.3905 39.9676V29.2981C33.0359 29.1524 32.7032 28.9374 32.4154 28.6484C31.9972 28.2308 31.7129 27.6981 31.5987 27.1182C31.4845 26.5384 31.5456 25.9376 31.7742 25.3926L27.366 20.9869L15.7323 32.6085C15.4997 32.8408 15.3151 33.1167 15.1892 33.4204C15.0633 33.7241 14.9985 34.0497 14.9985 34.3784C14.9985 34.7072 15.0633 35.0327 15.1892 35.3364C15.3151 35.6401 15.4997 35.916 15.7323 36.1484L32.6995 53.1132C32.9318 53.3456 33.2077 53.53 33.5113 53.6558C33.8149 53.7816 34.1403 53.8463 34.4689 53.8463C34.7975 53.8463 35.1229 53.7816 35.4265 53.6558C35.7301 53.53 36.0059 53.3456 36.2382 53.1132L53.1265 36.2516C53.3591 36.0193 53.5437 35.7433 53.6696 35.4396C53.7955 35.1359 53.8603 34.8104 53.8603 34.4816C53.8603 34.1529 53.7955 33.8273 53.6696 33.5236C53.5437 33.2199 53.3591 32.944 53.1265 32.7117" fill="#F03C2E"/>
</g>
<defs>
<clipPath id="clip0_715_1384">
<rect width="38.86" height="38.86" fill="white" transform="translate(15 15)"/>
</clipPath>
</defs>
</svg>
