<svg width="68" height="68" viewBox="0 0 68 68" fill="none" xmlns="http://www.w3.org/2000/svg">
<circle cx="34" cy="34" r="34" fill="white"/>
<path d="M34 19C27.3334 19 23.1666 22.3334 21.5 29C24 25.6666 26.9166 24.4166 30.25 25.25C32.1518 25.7254 33.5111 27.1053 35.0158 28.6324C37.467 31.1205 40.3037 34 46.5 34C53.1666 34 57.3334 30.6666 59 24C56.5 27.3334 53.5834 28.5834 50.25 27.75C48.3482 27.2746 46.9889 25.8947 45.4842 24.3676C43.033 21.8795 40.1963 19 34 19ZM21.5 34C14.8334 34 10.6666 37.3334 9 44C11.5 40.6666 14.4166 39.4166 17.75 40.25C19.6518 40.7254 21.0111 42.1053 22.5158 43.6324C24.967 46.1205 27.8037 49 34 49C40.6666 49 44.8334 45.6666 46.5 39C44 42.3334 41.0834 43.5834 37.75 42.75C35.8482 42.2746 34.4889 40.8947 32.9842 39.3676C30.533 36.8795 27.6963 34 21.5 34Z" fill="url(#paint0_linear_1110_1382)"/>
<defs>
<linearGradient id="paint0_linear_1110_1382" x1="-129.9" y1="979" x2="4188.42" y2="3468.87" gradientUnits="userSpaceOnUse">
<stop stop-color="#2298BD"/>
<stop offset="1" stop-color="#0ED7B5"/>
</linearGradient>
</defs>
</svg>
