<svg width="68" height="68" viewBox="0 0 68 68" fill="none" xmlns="http://www.w3.org/2000/svg">
<circle cx="34" cy="34" r="34" fill="white"/>
<g clip-path="url(#clip0_1104_1395)">
<path d="M37.7865 22.4904L37.7363 9H30.2139L30.2641 22.4904L34.0252 27.6561L37.7865 22.4904ZM30.2641 45.6098V59.1504H37.7865V45.6098L34.0252 40.4443L30.2641 45.6098Z" fill="white"/>
<path d="M37.7863 45.6098L45.7102 56.5426L51.7783 52.1293L43.8545 41.1967L37.7863 39.2406V45.6098ZM30.2639 22.4904L22.2898 11.5576L16.2217 15.9709L24.1455 26.9037L30.2639 28.8596V22.4904Z" fill="#00F2E6"/>
<path d="M24.1455 26.9037L11.3068 22.7412L9 29.8625L21.8385 34.0752L27.9066 32.0691L24.1455 26.9037ZM40.0934 36.0311L43.8545 41.1967L56.6932 45.359L59 38.2377L46.1615 34.0752L40.0934 36.0311Z" fill="#00B9F1"/>
<path d="M46.1615 34.0752L59 29.8625L56.6932 22.7412L43.8545 26.9037L40.0934 32.0691L46.1615 34.0752ZM21.8385 34.0752L9 38.2377L11.3068 45.359L24.1455 41.1967L27.9066 36.0311L21.8385 34.0752Z" fill="#D63AFF"/>
<path d="M24.1455 41.1967L16.2217 52.1293L22.2898 56.5426L30.2639 45.6098V39.2406L24.1455 41.1967ZM43.8545 26.9037L51.7783 15.9709L45.7102 11.5576L37.7863 22.4904V28.8596L43.8545 26.9037Z" fill="#FB015B"/>
</g>
<defs>
<clipPath id="clip0_1104_1395">
<rect width="50" height="50.1953" fill="white" transform="translate(9 9)"/>
</clipPath>
</defs>
</svg>
