<svg width="68" height="68" viewBox="0 0 68 68" fill="none" xmlns="http://www.w3.org/2000/svg">
<circle cx="34" cy="34" r="34" fill="white"/>
<path d="M31.9 9.66716C33.15 8.95935 34.7437 8.95623 35.9625 9.66716L54.625 20.1875C55.7921 20.8437 56.5734 22.1453 56.5625 23.4906V44.5844C56.5703 45.9859 55.7125 47.3156 54.4812 47.9594L35.9187 58.4312C35.2838 58.7821 34.5665 58.9565 33.8414 58.9365C33.1163 58.9164 32.4098 58.7026 31.7953 58.3172L26.225 55.0984C25.8453 54.8719 25.4187 54.6922 25.15 54.325C25.3875 54.0062 25.8093 53.9656 26.1531 53.825C26.9281 53.5781 27.6375 53.2 28.35 52.8C28.5296 52.675 28.75 52.7219 28.9218 52.8344L33.6718 55.5812C34.0109 55.7765 34.3546 55.5187 34.6453 55.3547L52.8718 45.0687C53.0968 44.9593 53.2218 44.7219 53.2031 44.475V23.5844C53.2281 23.3031 53.0671 23.0469 52.8125 22.9328L34.2968 12.5062C34.1901 12.4324 34.0635 12.3928 33.9338 12.3925C33.8041 12.3922 33.6773 12.4313 33.5703 12.5047L15.0812 22.9531C14.8312 23.0672 14.6593 23.3203 14.6906 23.6015V44.4922C14.6687 44.739 14.8 44.9719 15.0265 45.0781L19.9671 47.8672C20.8953 48.3672 22.0343 48.6484 23.0562 48.2812C23.5034 48.1127 23.8884 47.8115 24.1595 47.418C24.4307 47.0245 24.5751 46.5575 24.5734 46.0797L24.5781 25.314C24.5562 25.0062 24.8468 24.7515 25.1453 24.7828H27.5203C27.8328 24.775 28.0781 25.1062 28.0359 25.4156L28.0312 46.3125C28.0328 48.1687 27.2703 50.1875 25.5531 51.0984C23.4375 52.1922 20.8218 51.9625 18.7312 50.9109L13.4187 47.9734C12.1687 47.3484 11.3296 45.9984 11.3375 44.5984V23.5047C11.3427 22.8191 11.5311 22.1474 11.8833 21.5592C12.2356 20.9709 12.7387 20.4876 13.3406 20.1594L31.9 9.66716ZM37.2812 24.289C39.9796 24.1328 42.8687 24.1859 45.2968 25.5156C47.1765 26.5344 48.2187 28.6719 48.2531 30.7625C48.2 31.0437 47.9062 31.2 47.6375 31.1797C46.8562 31.1781 46.0718 31.1906 45.2875 31.175C44.9546 31.1875 44.7625 30.8812 44.7203 30.5875C44.4953 29.5875 43.95 28.5984 43.0093 28.1156C41.5656 27.3922 39.8906 27.4281 38.3156 27.4437C37.1656 27.5062 35.9296 27.6047 34.9562 28.2797C34.2062 28.7922 33.9812 29.8422 34.2484 30.6578C34.4984 31.2562 35.1906 31.4484 35.7546 31.6265C39.0078 32.4765 42.4531 32.4078 45.6453 33.5125C46.9656 33.9687 48.2578 34.8562 48.7109 36.239C49.3015 38.0922 49.0437 40.3078 47.7265 41.7953C46.6578 43.0203 45.1015 43.6703 43.5468 44.0484C41.4796 44.5093 39.3359 44.5203 37.2375 44.314C35.264 44.089 33.2109 43.5703 31.6875 42.2265C30.3843 41.0953 29.75 39.3328 29.8125 37.6328C29.8281 37.3453 30.114 37.1453 30.3906 37.1687H32.7343C33.05 37.1469 33.2812 37.4187 33.2968 37.7156C33.4421 38.6531 33.8 39.6687 34.6312 40.2156C36.2343 41.25 38.2453 41.1781 40.0796 41.2078C41.6 41.1406 43.3062 41.1203 44.5484 40.114C45.2046 39.5406 45.3968 38.5828 45.2203 37.7578C45.0281 37.0609 44.2828 36.7375 43.6578 36.5078C40.4468 35.4922 36.9625 35.8609 33.7828 34.7109C32.4921 34.2547 31.2437 33.3922 30.7484 32.0656C30.0562 30.1906 30.3734 27.8672 31.8312 26.4297C33.2375 25 35.3 24.4484 37.2531 24.2515L37.2812 24.289Z" fill="#8CC84B"/>
</svg>
