<svg width="68" height="68" viewBox="0 0 68 68" fill="none" xmlns="http://www.w3.org/2000/svg">
<circle cx="34" cy="34" r="34" fill="white"/>
<path d="M39.0161 14.5728C36.9177 12.0831 35.1107 9.55427 34.7415 9.02916C34.7327 9.01995 34.7222 9.01261 34.7105 9.0076C34.6988 9.00259 34.6862 9 34.6735 9C34.6607 9 34.6481 9.00259 34.6364 9.0076C34.6248 9.01261 34.6142 9.01995 34.6054 9.02916C34.2363 9.55437 32.4292 12.0831 30.3307 14.5728C12.3187 37.5449 33.1676 53.0478 33.1676 53.0478L33.3424 53.1645C33.4978 55.557 33.8865 59 33.8865 59H35.441C35.441 59 35.8295 55.5765 35.985 53.1646L36.1599 53.0284C36.1793 53.0479 57.0282 37.545 39.0161 14.5728ZM34.6637 52.6976C34.6637 52.6976 33.731 51.9002 33.4784 51.4918V51.4527L34.6054 26.4382C34.6054 26.3604 34.7221 26.3604 34.7221 26.4382L35.849 51.4527V51.4918C35.5964 51.9002 34.6637 52.6977 34.6637 52.6977V52.6976Z" fill="#01EC64"/>
</svg>
