<svg width="68" height="68" viewBox="0 0 68 68" fill="none" xmlns="http://www.w3.org/2000/svg">
<circle cx="34" cy="34" r="34" fill="white"/>
<g clip-path="url(#clip0_715_1391)">
<path d="M15 15H53.86V53.86H15V15Z" fill="#F0DB4F"/>
<path d="M50.6797 44.592C50.3953 42.8189 49.2391 41.3302 45.8148 39.9413C44.6254 39.3946 43.2993 39.0031 42.904 38.1017C42.7637 37.5772 42.7452 37.2817 42.8338 36.964C43.0887 35.9334 44.3188 35.612 45.294 35.9076C45.922 36.1181 46.5167 36.602 46.875 37.374C48.552 36.2881 48.5483 36.2954 49.7193 35.5493C49.2908 34.8844 49.0618 34.5777 48.781 34.2934C47.7726 33.1667 46.3985 32.5868 44.2006 32.6311C43.8201 32.6791 43.436 32.7308 43.0555 32.7788C41.9584 33.0559 40.913 33.6321 40.2998 34.4042C38.4603 36.4912 38.9848 40.1445 41.2233 41.6479C43.4286 43.3028 46.6681 43.6796 47.0819 45.2273C47.4845 47.1223 45.6893 47.7355 43.9051 47.5176C42.59 47.2442 41.8587 46.5756 41.0682 45.3603C39.6128 46.2025 39.6128 46.2025 38.1168 47.0632C38.4714 47.8389 38.8444 48.1899 39.4392 48.8622C42.2539 51.7176 49.2982 51.5772 50.5616 47.2553C50.6132 47.1075 50.9531 46.1175 50.6797 44.592ZM36.1257 32.8601H32.4909C32.4909 35.9999 32.4761 39.1176 32.4761 42.2574C32.4761 44.2558 32.5796 46.088 32.2545 46.6495C31.7226 47.7539 30.3448 47.6173 29.7168 47.403C29.0777 47.089 28.7527 46.642 28.3759 46.0104C28.2725 45.8294 28.1949 45.689 28.169 45.678C27.1828 46.2801 26.2001 46.8858 25.2139 47.488C25.7052 48.4964 26.4292 49.3719 27.3563 49.9407C28.7416 50.7718 30.6033 51.0267 32.55 50.5798C33.817 50.2104 34.9104 49.4458 35.483 48.2822C36.3104 46.7566 36.1331 44.9096 36.1257 42.8669C36.1442 39.535 36.1257 36.2031 36.1257 32.8601Z" fill="#323330"/>
</g>
<defs>
<clipPath id="clip0_715_1391">
<rect x="15" y="15" width="38.86" height="38.86" rx="5" fill="white"/>
</clipPath>
</defs>
</svg>
