<svg width="68" height="68" viewBox="0 0 68 68" fill="none" xmlns="http://www.w3.org/2000/svg">
<circle cx="34" cy="34" r="34" fill="white"/>
<path d="M54 34.5039C54 32.004 50.7646 29.6348 45.8041 28.1657C46.9488 23.2736 46.4401 19.3814 44.1983 18.1353C43.6816 17.843 43.0775 17.7046 42.4177 17.7046V19.4199C42.7833 19.4199 43.0775 19.4891 43.3239 19.6199C44.405 20.2199 44.874 22.5044 44.5084 25.4427C44.4209 26.1658 44.2778 26.9273 44.1029 27.7042C42.5448 27.3349 40.8437 27.0503 39.055 26.8657C37.9819 25.4427 36.8689 24.1505 35.7481 23.0197C38.3396 20.6891 40.7721 19.4122 42.4256 19.4122V17.6969C40.2395 17.6969 37.3777 19.2045 34.4841 21.8198C31.5905 19.2199 28.7287 17.7277 26.5426 17.7277V19.443C28.1881 19.443 30.6286 20.7122 33.2201 23.0274C32.1072 24.1582 30.9943 25.4427 29.937 26.8657C28.1404 27.0503 26.4393 27.3349 24.8812 27.7118C24.6983 26.9426 24.5632 26.1965 24.4678 25.4812C24.0942 22.5428 24.5552 20.2583 25.6284 19.6507C25.8669 19.5122 26.1769 19.4507 26.5426 19.4507V17.7354C25.8748 17.7354 25.2707 17.8738 24.746 18.1661C22.5122 19.4122 22.0114 23.2967 23.1641 28.1734C18.2195 29.6502 15 32.0117 15 34.5039C15 37.0037 18.2354 39.3729 23.1959 40.842C22.0512 45.7341 22.5599 49.6263 24.8017 50.8724C25.3184 51.1647 25.9225 51.3031 26.5903 51.3031C28.7764 51.3031 31.6382 49.7955 34.5318 47.1802C37.4254 49.7801 40.2872 51.2723 42.4733 51.2723C43.1411 51.2723 43.7452 51.1339 44.2699 50.8416C46.5037 49.5955 47.0045 45.711 45.8518 40.8343C50.7805 39.3652 54 36.996 54 34.5039ZM43.6498 29.3733C43.3557 30.3656 42.99 31.3886 42.5766 32.4116C42.2507 31.7963 41.9089 31.1809 41.5353 30.5656C41.1696 29.9502 40.7801 29.3502 40.3905 28.7656C41.5194 28.9272 42.6084 29.1272 43.6498 29.3733ZM40.009 37.5653C39.3889 38.6037 38.753 39.5882 38.0932 40.5036C36.9087 40.6036 35.7083 40.6574 34.5 40.6574C33.2996 40.6574 32.0993 40.6036 30.9227 40.5113C30.2629 39.5959 29.619 38.6191 28.999 37.5883C28.3948 36.5807 27.8463 35.5576 27.3455 34.5269C27.8384 33.4962 28.3948 32.4655 28.991 31.4578C29.6111 30.4194 30.247 29.4348 30.9068 28.5195C32.0913 28.4195 33.2917 28.3657 34.5 28.3657C35.7004 28.3657 36.9007 28.4195 38.0773 28.5118C38.7371 29.4272 39.381 30.404 40.001 31.4348C40.6052 32.4424 41.1537 33.4654 41.6545 34.4962C41.1537 35.5269 40.6052 36.5576 40.009 37.5653ZM42.5766 36.5653C43.0059 37.596 43.3716 38.6267 43.6737 39.6267C42.6323 39.8728 41.5353 40.0805 40.3985 40.2421C40.788 39.6498 41.1775 39.0421 41.5432 38.4191C41.9089 37.8037 42.2507 37.1807 42.5766 36.5653ZM34.5159 44.7726C33.7766 44.0342 33.0373 43.2112 32.306 42.3112C33.0214 42.342 33.7528 42.365 34.4921 42.365C35.2393 42.365 35.9786 42.3497 36.702 42.3112C35.9865 43.2112 35.2472 44.0342 34.5159 44.7726ZM28.6015 40.2421C27.4727 40.0805 26.3836 39.8805 25.3422 39.6344C25.6364 38.6421 26.002 37.6191 26.4154 36.5961C26.7413 37.2114 27.0832 37.8268 27.4568 38.4421C27.8304 39.0575 28.212 39.6575 28.6015 40.2421ZM34.4762 24.2351C35.2155 24.9735 35.9547 25.7965 36.6861 26.6965C35.9706 26.6657 35.2393 26.6427 34.5 26.6427C33.7528 26.6427 33.0135 26.658 32.2901 26.6965C33.0055 25.7965 33.7448 24.9735 34.4762 24.2351ZM28.5936 28.7656C28.204 29.3579 27.8145 29.9656 27.4488 30.5886C27.0832 31.204 26.7413 31.8194 26.4154 32.4347C25.9861 31.404 25.6205 30.3733 25.3184 29.3733C26.3598 29.1349 27.4568 28.9272 28.5936 28.7656ZM21.3993 38.396C18.5852 37.2345 16.7648 35.7115 16.7648 34.5039C16.7648 33.2962 18.5852 31.7655 21.3993 30.6117C22.083 30.3271 22.8302 30.0733 23.6013 29.8348C24.0544 31.3425 24.6506 32.9116 25.3899 34.5192C24.6586 36.1192 24.0703 37.6806 23.6252 39.1806C22.8382 38.9421 22.0909 38.6806 21.3993 38.396ZM25.6761 49.3878C24.595 48.7878 24.126 46.5033 24.4916 43.565C24.5791 42.8419 24.7222 42.0804 24.8971 41.3035C26.4552 41.6728 28.1563 41.9574 29.945 42.142C31.0181 43.565 32.1311 44.8572 33.2519 45.988C30.6604 48.3186 28.2279 49.5955 26.5744 49.5955C26.2167 49.5878 25.9146 49.5186 25.6761 49.3878ZM44.5322 43.5265C44.9058 46.4649 44.4448 48.7494 43.3716 49.357C43.1331 49.4955 42.8231 49.557 42.4574 49.557C40.8119 49.557 38.3714 48.2879 35.7799 45.9726C36.8928 44.8419 38.0057 43.5573 39.063 42.1343C40.8596 41.9497 42.5607 41.6651 44.1188 41.2882C44.3017 42.0651 44.4448 42.8112 44.5322 43.5265ZM47.5927 38.396C46.9091 38.6806 46.1618 38.9344 45.3907 39.1729C44.9376 37.6653 44.3414 36.0961 43.6021 34.4885C44.3335 32.8885 44.9217 31.3271 45.3669 29.8271C46.1539 30.0656 46.9011 30.3271 47.6007 30.6117C50.4148 31.7732 52.2352 33.2962 52.2352 34.5039C52.2273 35.7115 50.4068 37.2422 47.5927 38.396Z" fill="#61DAFB"/>
<path d="M34.4923 38.0191C36.4987 38.0191 38.1252 36.4453 38.1252 34.5039C38.1252 32.5625 36.4987 30.9886 34.4923 30.9886C32.4859 30.9886 30.8594 32.5625 30.8594 34.5039C30.8594 36.4453 32.4859 38.0191 34.4923 38.0191Z" fill="#61DAFB"/>
</svg>
