<svg width="68" height="68" viewBox="0 0 68 68" fill="none" xmlns="http://www.w3.org/2000/svg">
<circle cx="34" cy="34" r="34" fill="white"/>
<g clip-path="url(#clip0_714_1376)">
<path d="M15 36.1947V15.0044L29.5714 25.5996V32.663L19.8571 25.5996V39.7265L15 36.1947Z" fill="#00B0FF"/>
<path d="M29.5713 25.5993L44.1427 15.0041V36.1944L34.4284 43.2579L29.5713 39.7262L39.2856 32.6627V25.5993L29.5713 32.6627V25.5993Z" fill="#0081CB"/>
<path d="M29.5713 39.7262V46.7896L39.2856 53.8531V46.7896L29.5713 39.7262Z" fill="#00B0FF"/>
<path d="M39.2856 53.8531L53.8571 43.2579V29.131L48.9999 32.6627V39.7262L39.2856 46.7896V53.8531ZM48.9999 25.5993V18.5358L53.8571 15.0041V22.0675L48.9999 25.5993Z" fill="#0081CB"/>
</g>
<defs>
<clipPath id="clip0_714_1376">
<rect width="38.8571" height="38.8571" fill="white" transform="translate(15 15)"/>
</clipPath>
</defs>
</svg>
