<svg width="68" height="68" viewBox="0 0 68 68" fill="none" xmlns="http://www.w3.org/2000/svg">
<circle cx="34" cy="34" r="34" fill="white"/>
<path d="M59 47.7422C57.1812 48.2047 56.0562 47.7625 55.0469 46.2469L47.8687 36.3156L46.8312 34.9406L38.4484 46.2797C37.4906 47.6437 36.4859 48.2375 34.6984 47.7547L45.4328 33.3453L35.4391 20.3297C37.1578 19.9953 38.3453 20.1656 39.4 21.7047L46.8453 31.7594L54.3453 21.7594C55.3062 20.3953 56.3391 19.8766 58.0641 20.3797L54.1891 25.5172L48.9391 32.3531C48.3141 33.1344 48.4 33.6687 48.975 34.4234L59 47.7422ZM9.0125 33.1047L9.89062 28.7859C12.2812 20.2391 22.0781 16.6875 28.8344 21.9687C32.7828 25.075 33.7641 29.4687 33.5687 34.3906H11.3125C10.9781 43.25 17.3547 48.5969 25.4844 45.8687C28.3359 44.9109 30.0156 42.6781 30.8562 39.8844C31.2828 38.4844 31.9891 38.2656 33.3047 38.6656C32.6328 42.1594 31.1172 45.0781 27.9141 46.9047C23.1281 49.6391 16.2969 48.7547 12.7031 44.9547C10.5625 42.75 9.67813 39.9562 9.28125 36.9687C9.21875 36.475 9.09375 36.0047 9 35.5312C9.00833 34.7229 9.0125 33.9146 9.0125 33.1062V33.1047ZM11.3531 32.5109H31.4656C31.3344 26.1047 27.3453 21.5547 21.8937 21.5156C15.9094 21.4687 11.6125 25.9109 11.3531 32.5109Z" fill="black"/>
</svg>
