<svg width="68" height="68" viewBox="0 0 68 68" fill="none" xmlns="http://www.w3.org/2000/svg">
<circle cx="34" cy="34" r="34" fill="white"/>
<g clip-path="url(#clip0_879_1397)">
<path d="M18.1819 49.8097L15 14.0671L53 14.1389L49.6355 49.8097L34.1434 53.9329L18.1819 49.8097Z" fill="#1B73BA"/>
<path d="M34.1436 50.481V17.4712L49.7922 17.5191L47.0017 47.053L34.1436 50.481Z" fill="#1C88C7"/>
<path d="M45.9062 21.6904H21.8335L22.4856 26.0052H33.9089L22.6683 30.4402L23.3201 34.6113H39.8817L39.2816 40.4363L33.6742 41.4433L28.5886 40.2448L28.1973 36.9365H23.5288L24.1546 43.8168L34.1697 46.3817L43.7678 43.577L44.9936 30.1284H34.8476L45.9059 25.9094L45.9062 21.6904Z" fill="white"/>
</g>
<defs>
<clipPath id="clip0_879_1397">
<rect width="38" height="40" fill="white" transform="translate(15 14)"/>
</clipPath>
</defs>
</svg>
