<svg width="68" height="68" viewBox="0 0 68 68" fill="none" xmlns="http://www.w3.org/2000/svg">
<circle cx="34" cy="34" r="34" fill="white"/>
<g clip-path="url(#clip0_1117_1386)">
<path d="M33 60C28.7565 60 24.6869 58.3143 21.6863 55.3137C18.6857 52.3131 17 48.2435 17 44C17 39.7565 18.6857 35.6869 21.6863 32.6863C24.6869 29.6857 28.7565 28 33 28V60ZM33 10H17V26H33V10ZM43 26C45.1217 26 47.1566 25.1571 48.6569 23.6569C50.1571 22.1566 51 20.1217 51 18C51 15.8783 50.1571 13.8434 48.6569 12.3431C47.1566 10.8429 45.1217 10 43 10C40.8783 10 38.8434 10.8429 37.3431 12.3431C35.8429 13.8434 35 15.8783 35 18C35 20.1217 35.8429 22.1566 37.3431 23.6569C38.8434 25.1571 40.8783 26 43 26Z" fill="black"/>
</g>
<defs>
<clipPath id="clip0_1117_1386">
<rect width="50" height="50" fill="white" transform="translate(9 10)"/>
</clipPath>
</defs>
</svg>
