<svg id="visual" viewBox="0 0 1920 500" width="1920" height="500" xmlns="http://www.w3.org/2000/svg" xmlns:xlink="http://www.w3.org/1999/xlink" version="1.1"><path d="M0 385L40 378.2C80 371.3 160 357.7 240 324.5C320 291.3 400 238.7 480 237.7C560 236.7 640 287.3 720 303.5C800 319.7 880 301.3 960 299.5C1040 297.7 1120 312.3 1200 303.3C1280 294.3 1360 261.7 1440 239.5C1520 217.3 1600 205.7 1680 206.8C1760 208 1840 222 1880 229L1920 236L1920 501L1880 501C1840 501 1760 501 1680 501C1600 501 1520 501 1440 501C1360 501 1280 501 1200 501C1120 501 1040 501 960 501C880 501 800 501 720 501C640 501 560 501 480 501C400 501 320 501 240 501C160 501 80 501 40 501L0 501Z" fill="#0066FF" stroke-linecap="round" stroke-linejoin="miter"></path></svg>