<svg id="visual" viewBox="0 0 1920 500" width="1920" height="500" xmlns="http://www.w3.org/2000/svg" xmlns:xlink="http://www.w3.org/1999/xlink" version="1.1"><path d="M0 408L64 412.2C128 416.3 256 424.7 384 428.5C512 432.3 640 431.7 768 430.2C896 428.7 1024 426.3 1152 423.8C1280 421.3 1408 418.7 1536 412.3C1664 406 1792 396 1856 391L1920 386L1920 501L1856 501C1792 501 1664 501 1536 501C1408 501 1280 501 1152 501C1024 501 896 501 768 501C640 501 512 501 384 501C256 501 128 501 64 501L0 501Z" fill="#B880FF" stroke-linecap="round" stroke-linejoin="miter"></path></svg>