<svg id="visual" viewBox="0 0 1920 500" width="1920" height="500" xmlns="http://www.w3.org/2000/svg" xmlns:xlink="http://www.w3.org/1999/xlink" version="1.1"><path d="M0 456L64 446.8C128 437.7 256 419.3 384 400.7C512 382 640 363 768 353C896 343 1024 342 1152 347.5C1280 353 1408 365 1536 372C1664 379 1792 381 1856 382L1920 383L1920 501L1856 501C1792 501 1664 501 1536 501C1408 501 1280 501 1152 501C1024 501 896 501 768 501C640 501 512 501 384 501C256 501 128 501 64 501L0 501Z" fill="#B880FF" stroke-linecap="round" stroke-linejoin="miter"></path></svg>